<?xml version="1.0" encoding="utf-8"?>
<svg viewBox="0 0 2250 500" xmlns="http://www.w3.org/2000/svg">
  <defs>
    <linearGradient id="gradient_0" gradientUnits="userSpaceOnUse" x1="459.75146" y1="302.37091" x2="452.03217" y2="345.20056" gradientTransform="matrix(1, 0, 0, 1, -305.786755, -191.339218)">
      <stop offset="0" stop-color="#3F4B1C"/>
      <stop offset="1" stop-color="#6C7D36"/>
    </linearGradient>
    <linearGradient id="gradient_1" gradientUnits="userSpaceOnUse" x1="517.18439" y1="483.34171" x2="595.56866" y2="423.79651" gradientTransform="matrix(1, 0, 0, 1, -305.786755, -191.339218)">
      <stop offset="0" stop-color="#AA7D0C"/>
      <stop offset="1" stop-color="#F8D144"/>
    </linearGradient>
    <linearGradient id="gradient_2" gradientUnits="userSpaceOnUse" x1="468.0054" y1="527.89172" x2="531.12732" y2="473.64392" gradientTransform="matrix(1, 0, 0, 1, -305.786755, -191.339218)">
      <stop offset="0" stop-color="#542B07"/>
      <stop offset="1" stop-color="#AA7A10"/>
    </linearGradient>
    <linearGradient id="gradient_3" gradientUnits="userSpaceOnUse" x1="434.00479" y1="573.73383" x2="483.87717" y2="528.97552" gradientTransform="matrix(1, 0, 0, 1, -305.786755, -191.339218)">
      <stop offset="0" stop-color="#290B00"/>
      <stop offset="1" stop-color="#613807"/>
    </linearGradient>
  </defs>
  <path fill="#6C4916" d="M 242.006 89.57 C 242.344 88.533 242.406 88.221 243.222 87.449 C 244.45 87.527 245.011 87.829 245.832 88.787 C 246.484 89.547 247.003 90.476 247.544 91.318 L 248.522 92.836 C 248.145 92.831 247.769 92.82 247.392 92.805 C 245.931 92.738 245.312 92.71 244.304 91.562 C 243.752 90.933 243.415 90.579 242.755 90.102 L 242.006 89.57 Z"/>
  <path fill="#461C07" d="M 242.006 89.57 L 242.755 90.102 C 243.415 90.579 243.752 90.933 244.304 91.562 C 245.312 92.71 245.931 92.738 247.392 92.805 C 247.769 92.82 248.145 92.831 248.522 92.836 C 248.672 95.075 249.159 97.518 247.503 99.317 C 247.346 99.487 247.164 99.632 246.994 99.789 C 246.238 98.322 244.806 97.072 243.666 95.874 L 239.722 92.38 C 240.554 91.527 241.265 90.506 242.006 89.57 Z"/>
  <path fill="#A77A10" d="M 157.297 168.83 C 153.57 176.519 147.852 176.349 144.566 188.996 C 144.178 187.675 143.829 186.65 143.031 185.497 C 141.582 185.685 140.359 187.628 139.343 188.735 L 138.369 188.606 C 137.769 187.929 137.458 187.703 136.588 187.347 C 136.335 187.243 136.076 187.158 135.82 187.063 C 142.163 179.988 148.956 173.501 157.297 168.83 Z"/>
  <path fill="#303818" d="M 85.153 112.47 C 85.397 112.656 85.643 112.838 85.885 113.026 C 86.628 113.603 87.012 114.099 87.45 114.943 L 87.327 115.597 C 87.441 115.337 87.541 115.071 87.668 114.817 C 87.763 114.627 87.882 114.451 87.989 114.268 C 89.095 117.374 90.313 120.841 92.321 123.489 C 95.705 129.623 99.864 135.839 105.138 140.512 C 105.942 141.305 106.75 142.256 107.647 142.933 C 109.976 145.324 111.821 146.756 115.013 147.761 L 112.705 148.948 C 112.471 148.835 112.236 148.726 112.004 148.609 C 99.038 142.079 89.456 125.764 85.153 112.47 Z"/>
  <path fill="#D3A931" d="M 328.845 339.717 C 329.386 338.56 329.75 337.691 329.879 336.413 C 330.005 335.164 330.216 333.984 330.48 332.757 C 336.423 330.597 335.981 321.035 341.014 315.101 C 338.765 327.271 335.114 337.137 329.718 348.292 C 329.257 345.666 329.438 342.858 329.486 340.203 L 328.845 339.717 Z"/>
  <path fill="#42491E" d="M 115.013 147.761 L 119.309 148.89 L 123.546 150.358 C 126.808 151.36 130.065 151.73 133.405 152.347 C 144.162 154.335 148.921 154.668 159.782 152.428 C 160.781 152.222 163.947 151.322 164.616 152.149 L 162.587 152.754 L 162.492 153.245 C 164.816 154.753 166.498 155.392 169.281 155.66 L 168.832 155.774 C 154.303 159.353 125.388 156.565 112.705 148.948 L 115.013 147.761 Z"/>
  <path fill="#303818" d="M 215.028 139.025 C 218.444 141.089 220.104 139.818 223.679 139.523 C 222.731 142.098 221.859 144.532 221.5 147.275 L 221.05 151.07 L 220.629 151.769 C 220.448 151.744 220.267 151.717 220.085 151.694 C 219.79 151.657 219.494 151.627 219.199 151.588 C 216.459 151.225 213.886 151.466 211.147 151.692 C 203.884 152.16 197.028 154.786 189.924 155.253 C 204.27 149.883 204.334 150.919 214.444 138.98 L 215.028 139.025 Z"/>
  <path fill="#303818" d="M 239.722 92.38 L 243.666 95.874 C 239.408 102.636 234.335 108.544 229.622 114.96 C 226.488 119.225 223.905 123.946 220.117 127.681 C 218.464 127.746 216.514 128.089 215.013 127.298 C 214.613 126.36 214.391 125.679 214.4 124.665 C 214.409 123.641 214.455 123.884 214.341 123.013 C 214.323 122.872 214.295 122.734 214.271 122.594 C 217.11 118.287 222.776 113.162 226.231 108.813 C 229.753 104.378 232.358 99.148 235.963 94.842 C 237.048 93.545 238.176 92.995 239.722 92.38 Z"/>
  <path fill="#263309" d="M 243.666 95.874 C 244.806 97.072 246.238 98.322 246.994 99.789 C 242.457 103.35 238.941 113.263 235.044 116.271 C 228.575 122.319 228.684 132.489 223.679 139.523 C 220.104 139.818 218.444 141.089 215.028 139.025 L 214.444 138.98 C 212.575 139.691 210.7 140.384 208.819 141.06 C 209.409 138.999 211.753 136.512 213.016 134.696 C 211.303 134.655 210.981 134.86 209.647 133.697 L 209.775 133.41 C 210.582 132.555 211.171 131.483 211.811 130.497 C 213.336 130.601 214.946 130.771 216.468 130.558 C 218.32 130.299 219.09 129.07 220.117 127.681 C 223.905 123.946 226.488 119.225 229.622 114.96 C 234.335 108.544 239.408 102.636 243.666 95.874 Z"/>
  <path fill="#263309" d="M 141.051 67.892 C 161.661 66.734 181.933 75.041 197.173 88.776 C 202.101 93.217 206.6 98.598 209.054 104.831 C 211.091 110.007 210.526 118.716 214.271 122.594 C 214.295 122.734 214.323 122.872 214.341 123.013 C 214.455 123.884 214.409 123.641 214.4 124.665 C 214.391 125.679 214.613 126.36 215.013 127.298 C 216.514 128.089 218.464 127.746 220.117 127.681 C 219.09 129.07 218.32 130.299 216.468 130.558 C 214.946 130.771 213.336 130.601 211.811 130.497 C 211.171 131.483 210.582 132.555 209.775 133.41 L 209.647 133.697 C 210.981 134.86 211.303 134.655 213.016 134.696 C 211.753 136.512 209.409 138.999 208.819 141.06 C 196.478 146.654 182.656 153.168 169.281 155.66 C 166.498 155.392 164.816 154.753 162.492 153.245 L 162.587 152.754 L 164.616 152.149 C 163.947 151.322 160.781 152.222 159.782 152.428 C 148.921 154.668 144.162 154.335 133.405 152.347 C 130.065 151.73 126.808 151.36 123.546 150.358 L 119.309 148.89 L 115.013 147.761 C 111.821 146.756 109.976 145.324 107.647 142.933 C 106.75 142.256 105.942 141.305 105.138 140.512 C 99.864 135.839 95.705 129.623 92.321 123.489 C 90.313 120.841 89.095 117.374 87.989 114.268 C 87.882 114.451 87.763 114.627 87.668 114.817 C 87.541 115.071 87.441 115.337 87.327 115.597 L 87.45 114.943 C 87.012 114.099 86.628 113.603 85.885 113.026 C 85.643 112.838 85.397 112.656 85.153 112.47 C 83.325 109.245 81.615 100.708 80.389 96.707 C 78.762 92.588 77.772 88.111 77.102 83.742 C 76.721 81.257 76.041 78.42 77.599 76.3 C 79.961 75.183 81.632 74.799 84.181 75.62 C 86.99 76.525 89.612 78.293 92.39 79.369 C 102.422 78.794 111.289 74.199 120.75 71.359 C 127.255 69.405 134.3 68.526 141.051 67.892 Z"/>
  <path fill="#435626" d="M 173.646 117.34 C 173.468 115.891 173.098 114.335 173.497 112.907 C 174.065 114.452 174.619 115.984 175.076 117.566 L 174.525 119.272 C 171.825 120.268 166.587 117.358 163.583 116.824 L 162.931 116.714 L 165.664 115.384 C 168.314 116.191 170.93 116.805 173.646 117.34 Z"/>
  <path fill="#989E7E" d="M 77.599 76.3 C 79.961 75.183 81.632 74.799 84.181 75.62 C 86.99 76.525 89.612 78.293 92.39 79.369 C 89.735 80.687 86.684 80.589 83.8 80.518 C 81.477 79.281 79.535 78.133 77.599 76.3 Z"/>
  <path fill="#42491E" d="M 141.051 67.892 C 161.661 66.734 181.933 75.041 197.173 88.776 C 202.101 93.217 206.6 98.598 209.054 104.831 C 211.091 110.007 210.526 118.716 214.271 122.594 C 214.295 122.734 214.323 122.872 214.341 123.013 C 214.455 123.884 214.409 123.641 214.4 124.665 C 214.391 125.679 214.613 126.36 215.013 127.298 C 216.514 128.089 218.464 127.746 220.117 127.681 C 219.09 129.07 218.32 130.299 216.468 130.558 C 214.946 130.771 213.336 130.601 211.811 130.497 C 211.171 131.483 210.582 132.555 209.775 133.41 C 208.126 130.722 206.806 130.04 203.77 129.28 C 195.064 126.22 185.336 125.305 177.689 119.871 C 183.189 120.56 188.338 123.429 193.845 124.338 C 196.465 124.77 200.804 123.767 203.022 124.632 C 205.433 125.571 205.221 122.511 207.23 121.816 C 208.422 122.391 209.369 122.976 210.738 122.81 C 210.556 121.111 209.724 119.425 209.36 117.741 C 208.235 112.541 208.383 109.537 205.326 104.695 C 195.836 89.666 178.564 76.449 161.412 71.703 C 154.768 69.865 147.78 69.429 141.051 67.892 Z"/>
  <path fill="#435626" d="M 203.77 129.28 C 206.163 127.637 209.373 124.698 212.371 125.099 C 213.02 126.413 212.832 127.471 212.395 128.855 C 212.22 129.408 212.014 129.954 211.811 130.497 C 211.171 131.483 210.582 132.555 209.775 133.41 C 208.126 130.722 206.806 130.04 203.77 129.28 Z"/>
  <path fill="#435626" d="M 80.389 96.707 C 81.658 95.703 81.852 95.607 82.345 94.087 C 82.02 92.98 81.726 91.865 81.465 90.742 C 82.211 89.837 82.466 90.006 83.571 89.776 C 87.536 90.732 89.799 94.825 92.329 97.77 C 95.753 98.948 100.337 99.235 103.374 100.914 L 104.008 101.987 C 105.526 101.802 105.439 101.261 106.718 100.727 C 108.385 100.031 113.615 104.665 116.37 104.522 C 116.912 105.297 117.898 106.187 117.693 107.144 C 117.176 109.546 115.511 110.487 113.623 111.823 L 112.792 111.942 C 111.647 113.241 110.059 115.272 108.247 115.51 C 108.153 115.824 108.118 116.162 107.965 116.452 C 107.447 117.433 106.095 118.32 105.033 118.561 C 101.436 119.376 97.211 116.694 94.347 114.826 L 92.638 114.606 C 91.758 115.764 91.62 116.297 91.809 117.766 C 92.076 119.846 92.64 121.358 92.321 123.489 C 90.313 120.841 89.095 117.374 87.989 114.268 C 87.882 114.451 87.763 114.627 87.668 114.817 C 87.541 115.071 87.441 115.337 87.327 115.597 L 87.45 114.943 C 87.012 114.099 86.628 113.603 85.885 113.026 C 85.643 112.838 85.397 112.656 85.153 112.47 C 83.325 109.245 81.615 100.708 80.389 96.707 Z"/>
  <path fill="#303818" d="M 103.374 100.914 L 104.008 101.987 C 105.526 101.802 105.439 101.261 106.718 100.727 C 108.385 100.031 113.615 104.665 116.37 104.522 C 116.912 105.297 117.898 106.187 117.693 107.144 C 117.176 109.546 115.511 110.487 113.623 111.823 L 112.792 111.942 C 113.12 111.43 113.439 110.912 113.778 110.407 C 114.362 109.541 114.509 109.466 114.686 108.392 C 113.11 109.505 111.498 110.524 109.848 111.525 C 106.729 110.826 99.127 106.082 97.039 103.843 C 103.271 103.862 99.63 103.062 103.374 100.914 Z"/>
  <path fill="#42491E" d="M 80.389 96.707 C 81.658 95.703 81.852 95.607 82.345 94.087 C 82.02 92.98 81.726 91.865 81.465 90.742 C 82.211 89.837 82.466 90.006 83.571 89.776 C 87.536 90.732 89.799 94.825 92.329 97.77 C 95.753 98.948 100.337 99.235 103.374 100.914 C 99.63 103.062 103.271 103.862 97.039 103.843 C 92.028 100.742 88.214 97.657 84.843 92.778 L 84.839 97.369 C 84.817 99.853 86.064 101.806 87.738 103.565 C 88.141 103.99 88.575 104.384 88.995 104.792 C 90.297 106.056 90.873 106.885 90.912 108.742 C 90.937 109.951 90.648 111.021 90.334 112.177 L 87.989 114.268 C 87.882 114.451 87.763 114.627 87.668 114.817 C 87.541 115.071 87.441 115.337 87.327 115.597 L 87.45 114.943 C 87.012 114.099 86.628 113.603 85.885 113.026 C 85.643 112.838 85.397 112.656 85.153 112.47 C 83.325 109.245 81.615 100.708 80.389 96.707 Z"/>
  <path fill="url(#gradient_0)" d="M 152.303 103.151 C 153.329 105.731 154.505 110.095 156.431 112.03 C 159.637 112.816 162.483 114.514 165.664 115.384 L 162.931 116.714 L 163.583 116.824 C 166.587 117.358 171.825 120.268 174.525 119.272 L 175.076 117.566 L 177.689 119.871 C 185.336 125.305 195.064 126.22 203.77 129.28 C 206.806 130.04 208.126 130.722 209.775 133.41 L 209.647 133.697 C 210.981 134.86 211.303 134.655 213.016 134.696 C 211.753 136.512 209.409 138.999 208.819 141.06 C 196.478 146.654 182.656 153.168 169.281 155.66 C 166.498 155.392 164.816 154.753 162.492 153.245 L 162.587 152.754 L 164.616 152.149 C 163.947 151.322 160.781 152.222 159.782 152.428 C 148.921 154.668 144.162 154.335 133.405 152.347 C 130.065 151.73 126.808 151.36 123.546 150.358 L 119.309 148.89 L 115.013 147.761 C 111.821 146.756 109.976 145.324 107.647 142.933 C 106.75 142.256 105.942 141.305 105.138 140.512 C 99.864 135.839 95.705 129.623 92.321 123.489 C 92.64 121.358 92.076 119.846 91.809 117.766 C 91.62 116.297 91.758 115.764 92.638 114.606 L 94.347 114.826 C 97.211 116.694 101.436 119.376 105.033 118.561 C 106.095 118.32 107.447 117.433 107.965 116.452 C 108.118 116.162 108.153 115.824 108.247 115.51 C 110.059 115.272 111.647 113.241 112.792 111.942 L 113.623 111.823 C 115.511 110.487 117.176 109.546 117.693 107.144 C 117.898 106.187 116.912 105.297 116.37 104.522 C 121.087 104.946 125.836 105.399 130.489 106.31 C 134.368 107.07 138.204 108.28 142.109 108.854 C 145.761 109.443 148.917 110.649 152.208 112.322 L 152.303 103.151 Z"/>
  <path fill="#6A793B" d="M 171.228 140.482 C 172.069 140.823 172.582 141.307 173.274 141.881 C 173.839 142.957 173.992 143.709 173.849 144.901 C 173.632 146.698 172.692 147.507 171.39 148.57 C 169.796 148.903 169.511 148.608 168.059 147.973 L 166.466 145.489 C 165.409 145.605 165.806 145.505 164.822 145.829 C 164.596 145.904 164.373 145.985 164.148 146.063 L 164.178 145.466 C 166.27 143.464 168.792 142.026 171.228 140.482 Z"/>
  <path fill="#435626" d="M 152.303 103.151 C 153.329 105.731 154.505 110.095 156.431 112.03 C 155.795 113.115 155.164 114.179 154.437 115.207 C 154.082 115.398 153.891 115.538 153.444 115.569 C 150.286 115.789 137.832 112.298 134.889 110.501 L 135.489 110.189 L 134.93 110.333 C 137.086 109.745 138.993 110.255 141.153 110.559 L 141.04 109.566 L 142.109 108.854 C 145.761 109.443 148.917 110.649 152.208 112.322 L 152.303 103.151 Z"/>
  <path fill="#6A793B" d="M 93.407 120.176 C 101.618 124.526 104.832 129.701 111.417 135.697 C 108.844 135.539 107.234 135.291 105.13 136.972 C 98.806 134.221 96.058 126.028 93.407 120.176 Z"/>
  <path fill="#6A793B" d="M 209.647 133.697 L 208.475 134.152 L 207.968 133.86 C 207.684 133.7 207.397 133.547 207.115 133.385 C 200.5 129.596 192.826 128.586 185.603 126.436 C 181.56 125.234 177.722 123.482 173.722 122.171 C 169.521 120.795 165.02 119.72 161.216 117.412 L 161.324 116.789 L 162.931 116.714 L 163.583 116.824 C 166.587 117.358 171.825 120.268 174.525 119.272 L 175.076 117.566 L 177.689 119.871 C 185.336 125.305 195.064 126.22 203.77 129.28 C 206.806 130.04 208.126 130.722 209.775 133.41 L 209.647 133.697 Z"/>
  <path fill="#6A793B" d="M 105.13 136.972 C 107.234 135.291 108.844 135.539 111.417 135.697 L 112.861 137.135 C 117.463 138.875 125.062 140.401 127.754 144.818 C 129.2 145.809 130.061 146.105 130.737 147.753 C 130.525 148.472 130.624 148.773 129.914 149.174 C 128.132 150.182 125.702 149.699 123.864 149.067 L 123.546 150.358 L 119.309 148.89 L 115.013 147.761 C 111.821 146.756 109.976 145.324 107.647 142.933 C 106.75 142.256 105.942 141.305 105.138 140.512 L 105.13 136.972 Z"/>
  <path fill="#72864A" d="M 119.309 148.89 C 119.191 147.282 119.008 145.508 119.491 143.939 C 119.881 142.675 120.163 142.129 121.315 141.493 C 122.65 141.982 123.016 142.7 123.909 143.783 L 127.754 144.818 C 129.2 145.809 130.061 146.105 130.737 147.753 C 130.525 148.472 130.624 148.773 129.914 149.174 C 128.132 150.182 125.702 149.699 123.864 149.067 L 123.546 150.358 L 119.309 148.89 Z"/>
  <path fill="#72864A" d="M 105.13 136.972 C 107.234 135.291 108.844 135.539 111.417 135.697 L 112.861 137.135 C 112.927 137.354 112.99 137.574 113.061 137.792 C 114.073 140.923 116.188 142.417 117.44 145.177 L 117.08 145.729 C 113.618 145.848 111.019 143.124 107.647 142.933 C 106.75 142.256 105.942 141.305 105.138 140.512 L 105.13 136.972 Z"/>
  <path fill="url(#gradient_1)" d="M 211.147 151.692 C 213.886 151.466 216.459 151.225 219.199 151.588 C 219.494 151.627 219.79 151.657 220.085 151.694 C 220.267 151.717 220.448 151.744 220.629 151.769 C 222.204 152.021 223.784 152.241 225.368 152.429 C 227.156 152.544 228.945 152.643 230.735 152.726 L 235.253 153.767 C 244.91 157.007 255.448 159.778 264.306 164.847 C 271.424 168.921 277.409 175.102 283.328 180.712 C 303.149 199.497 314.085 211.356 326.275 236.061 C 332.535 248.748 335.082 261.902 337.629 275.666 C 338.413 279.906 339.486 284.275 339.849 288.561 C 342.236 296.479 342.306 306.975 341.014 315.101 C 335.981 321.035 336.423 330.597 330.48 332.757 C 330.216 333.984 330.005 335.164 329.879 336.413 C 329.75 337.691 329.386 338.56 328.845 339.717 L 329.486 340.203 C 329.438 342.858 329.257 345.666 329.718 348.292 C 325.531 358.577 321.432 368.618 315.268 377.922 C 313.397 380.375 311.551 382.699 309.357 384.873 L 307.196 386.956 C 303.524 390.193 299.245 394.54 294.925 396.739 L 294.879 397.255 C 292.706 399.182 290.556 401.141 288.255 402.915 L 283.508 405.737 C 279.384 407.372 275.597 409.776 271.776 412.011 C 270.172 413.185 268.626 414.167 266.837 415.037 C 265.537 415.986 264.256 416.772 262.837 417.529 C 261.11 419.037 259.472 420.468 258.017 422.253 L 255.984 425.184 L 254.887 426.406 L 254.469 427.42 C 253.65 427.94 252.785 428.432 252.006 429.01 L 250.843 429.51 C 245.411 432.457 239.596 432.831 233.66 431.424 C 226.77 429.068 220.411 424.841 213.397 423.032 C 207.939 421.624 201.835 422.495 196.249 421.458 C 170.589 416.696 148.228 403.51 130.21 384.868 C 126.758 381.443 117.977 369.809 114.939 363.998 C 108.333 351.361 103.343 331.607 100.746 317.508 C 99.806 312.41 99.36 307.231 98.433 302.13 L 98.09 299.16 C 95.534 283.094 96.207 268.407 99.975 252.565 C 102.234 237.385 112.925 216.093 121.866 203.618 C 126.076 197.744 130.992 192.426 135.82 187.063 C 136.076 187.158 136.335 187.243 136.588 187.347 C 137.458 187.703 137.769 187.929 138.369 188.606 L 139.343 188.735 C 140.359 187.628 141.582 185.685 143.031 185.497 C 143.829 186.65 144.178 187.675 144.566 188.996 C 147.852 176.349 153.57 176.519 157.297 168.83 C 166.272 162.232 179.112 157.72 189.924 155.253 C 197.028 154.786 203.884 152.16 211.147 151.692 Z"/>
  <path fill="#D3A931" d="M 235.707 278.1 C 237.179 278.203 238.321 278.36 239.721 278.818 C 240.787 280.089 240.72 280.642 240.945 282.25 C 240.009 282.14 239.047 282.039 238.193 281.596 C 236.835 280.892 236.281 279.416 235.707 278.1 Z"/>
  <path fill="#EDCB63" d="M 206.705 168.179 L 207.188 168.179 C 208.92 168.185 210.568 168.006 211.839 169.286 L 211.391 170.659 C 210.375 171.346 209.793 171.86 208.523 171.884 C 207.312 170.776 207.202 169.723 206.705 168.179 Z"/>
  <path fill="#EDCB63" d="M 229.57 236.373 C 230.797 236.799 231.947 237.3 233.128 237.836 C 234.35 239.09 234.388 240.215 234.599 241.864 C 233.046 241.295 231.723 240.741 230.338 239.832 C 229.522 238.367 229.559 237.991 229.57 236.373 Z"/>
  <path fill="#EDCB63" d="M 239.934 253.47 C 241.373 253.936 242.21 254.281 243.398 255.275 C 244.249 256.814 244.185 257.979 244.147 259.709 C 243.193 259.267 242.491 258.798 241.697 258.11 C 240.173 256.789 240.052 255.339 239.934 253.47 Z"/>
  <path fill="#E2B93A" d="M 283.838 323.867 C 285.089 324.02 286.52 324.212 287.527 325.062 C 288.656 326.016 288.624 326.886 288.769 328.23 C 287.136 328.169 285.528 328.304 284.106 327.391 C 283.445 325.949 283.652 325.411 283.838 323.867 Z"/>
  <path fill="#D3A931" d="M 224.467 270.513 C 226.153 271.772 228.667 273.433 228.879 275.733 C 228.893 275.882 228.863 276.031 228.855 276.18 L 228.418 276.465 C 227.118 276.17 226.384 275.894 225.32 275.085 C 224.44 273.9 223.441 272.903 223.483 271.348 L 224.467 270.513 Z"/>
  <path fill="#D3A931" d="M 245.615 273.347 C 246.219 273.468 246.582 273.699 247.112 274.001 C 247.815 275.515 247.663 277.009 247.637 278.635 L 246.968 278.821 C 245.497 278.077 243.716 277.397 242.952 275.866 C 243.538 274.317 244.231 274.193 245.615 273.347 Z"/>
  <path fill="#D3A931" d="M 234.499 215.285 C 235.528 216.883 236.503 218.566 237.688 220.052 L 237.616 220.723 C 237.025 222.241 236.941 222.546 235.668 223.53 L 234.968 221.741 L 232.623 219.522 C 232.749 219.415 232.882 219.316 233.001 219.201 C 234.331 217.925 234.435 217.021 234.499 215.285 Z"/>
  <path fill="#E2B93A" d="M 291.165 330.878 C 292.083 331.604 293.216 332.385 293.796 333.422 C 294.687 335.012 294.06 336.442 293.444 337.955 C 292.09 337.416 291.528 337.113 290.579 335.937 C 290.091 334.103 290.659 332.66 291.165 330.878 Z"/>
  <path fill="#A77A10" d="M 258.039 330.246 L 257.231 330.164 C 256.228 329.407 255.387 328.763 254.696 327.698 C 253.736 326.217 253.457 325.009 253.857 323.297 C 255.066 322.555 255.303 322.654 256.743 322.726 L 257.103 323.341 C 256.601 323.908 256.296 323.973 256.347 324.798 C 256.463 326.672 257.562 328.437 258.039 330.246 Z"/>
  <path fill="#A77A10" d="M 215.512 288.819 L 215.979 288.629 C 219.325 289.763 220.831 292.914 223.527 294.784 C 224.52 295.474 224.868 295.719 225.441 296.834 C 224.84 296.914 224.247 297.023 223.634 296.956 C 220.692 296.636 218.775 292.469 216.869 290.564 C 216.222 289.918 215.983 289.648 215.512 288.819 Z"/>
  <path fill="#F2D989" d="M 195.738 183.928 C 196.818 184.944 198.101 186.148 198.446 187.657 C 198.83 189.335 198.169 189.953 197.265 191.214 C 195.611 190.265 194.251 189.326 193.71 187.424 C 194.091 185.646 194.564 185.265 195.738 183.928 Z"/>
  <path fill="#F2D989" d="M 230.005 191.104 L 231.508 191.682 L 231.767 192.423 C 230.712 194.591 228.333 196.057 226.477 197.539 C 225.359 197.235 225.114 197.002 224.273 196.258 C 224.4 195.725 224.518 195.084 224.779 194.599 C 225.815 192.675 228.105 191.851 230.005 191.104 Z"/>
  <path fill="#F2D989" d="M 200.601 192.883 C 202.701 193.183 205.031 192.575 206.993 193.382 C 207.159 194.936 206.306 195.884 205.576 197.24 C 205.159 197.616 204.947 197.824 204.464 198.169 C 203.418 198.916 202.919 199.132 201.671 198.891 C 200.579 197.223 200.729 194.828 200.601 192.883 Z"/>
  <path fill="#A77A10" d="M 225.32 275.085 C 224.398 274.898 223.438 274.732 222.541 274.444 C 218.155 273.039 219.949 269.354 218.146 266.111 C 218.005 265.858 217.85 265.613 217.703 265.363 L 217.907 264.764 C 219.922 265.585 220.54 268.24 222.789 269.246 C 223.798 269.698 223.766 269.537 224.467 270.513 L 223.483 271.348 C 223.441 272.903 224.44 273.9 225.32 275.085 Z"/>
  <path fill="#966911" d="M 299.589 378.563 C 302.035 380.376 305.086 382.219 308.292 381.754 C 310.338 381.458 311.822 380.197 313.113 378.664 L 312.65 378.315 C 313.759 377.456 313.933 377.782 315.268 377.922 C 313.397 380.375 311.551 382.699 309.357 384.873 C 306.549 383.776 303.85 382.751 300.781 382.758 C 299.889 382.76 299.059 382.748 298.169 382.642 L 297.206 382.522 C 299.016 381.89 301.001 382.091 302.895 382.115 L 302.857 381.589 C 301.463 380.763 300.312 380.001 299.156 378.861 L 299.589 378.563 Z"/>
  <path fill="#D3A931" d="M 258.039 330.246 C 257.562 328.437 256.463 326.672 256.347 324.798 C 256.296 323.973 256.601 323.908 257.103 323.341 C 259.219 325.16 262.423 326.743 263.85 329.092 C 263.809 329.979 264.019 330.074 263.267 330.696 C 262.465 331.359 261.936 331.463 260.948 331.659 C 259.791 331.327 259.03 330.929 258.039 330.246 Z"/>
  <path fill="#F2D989" d="M 214.817 230.059 C 217.432 230.201 219.684 231.507 221.676 233.168 C 222.829 234.129 223.762 235.162 223.906 236.658 C 222.057 237.042 219.787 237.321 218.078 236.283 C 215.704 234.841 215.304 232.593 214.817 230.059 Z"/>
  <path fill="#A77A10" d="M 297.206 382.522 L 298.169 382.642 C 299.059 382.748 299.889 382.76 300.781 382.758 C 303.85 382.751 306.549 383.776 309.357 384.873 L 307.196 386.956 C 303.451 386.506 299.742 386.113 296.088 385.148 C 296.35 384.248 296.82 383.377 297.206 382.522 Z"/>
  <path fill="#E2B93A" d="M 309.214 311.387 C 311.596 312.652 313.591 314.479 314.399 317.138 C 314.962 318.99 314.656 319.924 313.826 321.543 C 313.39 321.383 312.952 321.229 312.526 321.046 C 310.619 320.231 308.287 319.096 307.73 316.901 C 307.242 314.98 308.382 313.036 309.214 311.387 Z"/>
  <path fill="#D3A931" d="M 193.364 228.489 C 194.795 229.77 193.801 230.95 194.468 232.413 C 196.545 236.962 206.305 237.567 208.1 247.48 C 204.252 245.875 199.4 240.483 196.779 237.254 C 194.262 234.154 192.958 232.608 193.364 228.489 Z"/>
  <path fill="#E2B93A" d="M 215.658 220.617 C 216.661 221.187 217.345 221.892 218.024 222.815 C 218.899 224.004 219.388 225.115 219.123 226.57 L 218.041 227.044 C 215.6 226.114 213.817 223.161 211.699 221.57 C 210.476 220.652 209.488 220.365 207.954 220.633 L 207.597 221.482 L 208.393 223.255 L 208.078 223.239 L 207.29 221.868 C 207.246 220.781 207.16 220.355 207.656 219.357 C 208.803 219.859 209.866 220.318 211.099 220.579 C 211.18 219.663 210.542 218.963 210.068 218.192 C 209.192 216.768 208.438 215.683 208.521 213.941 C 208.61 212.078 209.068 209.643 210.593 208.402 C 211.538 207.634 213.715 207.979 214.916 208.048 C 215.055 207.324 215.137 206.658 215.133 205.919 C 215.123 204.334 215.143 203.456 215.847 202.023 C 217.058 201.064 217.23 201.036 218.777 200.891 C 217.591 201.7 216.396 202.427 216.017 203.917 C 215.549 205.752 216.536 207.364 215.222 209.142 L 214.606 209.108 C 213.126 209.041 212.101 208.89 210.815 209.767 C 209.66 211.245 209.148 212.685 209.344 214.569 C 209.546 216.511 210.619 218.548 212.181 219.74 C 213.289 220.586 214.295 220.705 215.658 220.617 Z"/>
  <path fill="#F2D989" d="M 224.88 212.443 C 224.933 212.605 224.984 212.768 225.041 212.929 C 225.128 213.178 225.223 213.424 225.313 213.672 C 225.436 214.012 225.551 214.356 225.69 214.69 C 226.326 216.218 227.273 216.949 228.772 217.575 C 230.118 218.137 231.351 218.81 232.623 219.522 L 234.968 221.741 C 233.962 222.596 233.339 223.568 232.582 224.637 C 231.21 223.231 229.996 221.948 228.284 220.963 C 225.644 218.957 222.051 218.211 218.898 217.264 C 220.712 215.391 222.772 213.96 224.88 212.443 Z"/>
  <path fill="#EDCB63" d="M 228.284 220.963 C 229.996 221.948 231.21 223.231 232.582 224.637 C 233.339 223.568 233.962 222.596 234.968 221.741 L 235.668 223.53 C 235.382 223.949 234.791 224.685 234.633 225.201 C 233.615 228.509 237.663 229.639 238.777 232.241 C 238.3 233.309 238.371 233.329 237.312 233.796 C 233.87 232.857 231.24 229.835 228.747 227.43 C 228.513 225.284 228.421 223.117 228.284 220.963 Z"/>
  <path fill="#D3A931" d="M 268.289 348.613 L 269.035 348.594 C 271.672 348.54 273.75 348.431 275.733 350.453 C 277.652 352.41 278.767 355.032 278.706 357.785 C 278.675 359.175 278.513 360.19 277.507 361.212 C 276.05 361.416 275.678 361.02 274.398 360.359 C 273.13 358.628 272.177 356.625 271.144 354.744 C 272.247 355.737 273.223 356.593 274.557 357.281 C 272.861 354.499 270.371 352.298 268.779 349.508 C 268.611 349.213 268.453 348.911 268.289 348.613 Z"/>
  <path fill="#F2D989" d="M 262.357 289.636 C 265.993 289.572 270.374 290.136 273.72 291.57 C 275.646 292.395 276.658 293.294 277.475 295.23 C 277.408 297.062 277.047 297.393 276.056 298.878 C 273.098 298.735 271.221 295.93 268.938 294.393 C 267.627 293.51 266.607 293.786 265.141 294.05 C 264.169 294.225 263.707 294.395 262.732 294.196 C 262.058 292.641 262.247 291.276 262.357 289.636 Z"/>
  <path fill="#F2D989" d="M 215.658 220.617 C 214.295 220.705 213.289 220.586 212.181 219.74 C 210.619 218.548 209.546 216.511 209.344 214.569 C 209.148 212.685 209.66 211.245 210.815 209.767 C 212.101 208.89 213.126 209.041 214.606 209.108 L 215.222 209.142 C 216.536 207.364 215.549 205.752 216.017 203.917 C 216.396 202.427 217.591 201.7 218.777 200.891 C 219.58 203.15 220.054 205.439 219.018 207.733 C 217.696 210.66 212.488 213.823 213.854 217.373 C 214.284 218.493 215.041 219.585 215.658 220.617 Z"/>
  <path fill="#D3A931" d="M 286.838 344.958 C 283.687 342.835 282.057 341.141 278.168 340.434 L 277.499 340.319 C 277.813 339.777 278.082 339.242 278.352 338.679 L 277.858 338.874 C 278.023 337.855 278.246 336.776 278.264 335.744 C 278.286 334.51 278.034 333.876 277.184 333.031 C 276.519 333.013 275.597 333.067 274.969 332.868 C 273.86 332.515 273.678 332.109 273.155 331.173 C 273.882 329.968 274.721 329.679 275.951 329.146 C 277.467 329.246 277.807 329.201 279.027 330.065 C 280.024 332.201 279.523 335.454 279.465 337.797 L 286.983 338.2 C 287.654 338.741 288.385 339.423 289.138 339.835 C 290.624 340.648 290.835 340.406 292.341 339.86 C 293.374 340.352 293.907 340.362 294.483 341.386 C 294.301 341.345 294.122 341.291 293.938 341.263 C 291.55 340.901 288.783 343.693 286.838 344.958 Z"/>
  <path fill="#F2D989" d="M 283.675 310.367 C 282.926 310.137 282.194 309.91 281.473 309.6 C 277.898 308.062 273.283 305.174 271.714 301.452 L 272.168 300.943 C 275.631 300.985 279.093 303.068 282.476 303.857 C 285.942 304.665 288.944 303.734 292.393 305.32 C 293.485 305.822 294.108 306.141 294.526 307.308 L 293.429 307.952 C 293.292 307.98 293.155 308.011 293.017 308.038 C 289.481 308.741 286.53 307.723 283.675 310.367 Z"/>
  <path fill="#D3A931" d="M 283.675 310.367 C 283.254 309.526 282.959 308.732 282.689 307.83 L 283.454 307.046 C 286.465 306.22 290.409 307.316 293.429 307.952 C 293.292 307.98 293.155 308.011 293.017 308.038 C 289.481 308.741 286.53 307.723 283.675 310.367 Z"/>
  <path fill="#D3A931" d="M 254.329 300.389 C 253.679 301.86 253.634 302.525 252.137 303.295 C 249.896 304.447 249.059 306.169 247.509 308.076 L 246.713 308.042 C 243.884 305.822 235.962 296.987 235.275 293.679 L 236.138 293.109 L 237.547 293.467 C 240.767 293.993 245.063 294.132 247.986 295.423 C 250.496 296.845 252.339 298.322 254.329 300.389 Z"/>
  <path fill="#D3A931" d="M 220.688 251.554 C 223.309 251.537 225.239 252.834 227.438 254.107 C 228.88 254.941 234.712 258.266 234.583 259.925 C 234.519 260.753 233.624 261.639 234.199 262.59 C 235.965 265.51 239.49 265.573 240.671 269.975 C 240.144 270.913 240.005 270.741 239.036 271.071 C 238.305 270.93 237.519 270.804 236.806 270.603 C 234.233 269.874 233.494 267.315 232.256 265.221 C 229.132 259.938 228.01 263.806 225.077 262.596 C 222.487 261.528 218.627 254.998 217.42 252.408 C 218.415 251.912 219.601 251.782 220.688 251.554 Z"/>
  <path fill="#EDCB63" d="M 250.446 172.482 C 251.464 174.723 252.406 177.146 251.665 179.616 C 251.248 181.006 250.197 181.608 249.059 182.354 C 246.975 182.742 244.82 183.157 242.699 183.247 C 239.242 183.395 234.583 181.409 231.972 184.58 C 230.995 185.767 230.523 187.422 229.689 188.71 C 228.532 188.577 227.401 188.439 226.245 188.66 C 224.143 189.06 221.503 189.602 219.455 188.722 C 218.461 188.295 218.241 188.137 217.915 187.11 C 218.612 185.809 219.612 185.2 220.787 184.38 C 221.172 182.806 221.205 181.874 220.476 180.402 L 219.87 179.362 C 220.052 177.722 221.05 176.622 221.99 175.331 C 223.019 175.458 224.045 175.603 225.068 175.766 C 230.668 176.658 233.212 181.892 238.911 178.067 C 239.044 178.327 239.15 178.601 239.309 178.845 C 240.018 179.936 241.639 180.358 242.814 180.703 C 244.399 181.168 245.303 181.239 246.758 180.449 C 246.498 176.695 248.18 175.196 250.446 172.482 Z"/>
  <path fill="#E2B93A" d="M 220.476 180.402 C 222.839 179.952 227.858 178.368 230.012 179.435 L 229.76 180.319 L 228.82 180.746 C 226.124 182.661 224.234 184.253 220.787 184.38 C 221.172 182.806 221.205 181.874 220.476 180.402 Z"/>
  <path fill="#F2D989" d="M 228.82 180.746 C 229.536 181.173 230.26 181.273 230.398 182.166 C 230.695 184.098 229.728 186.621 229.689 188.71 C 228.532 188.577 227.401 188.439 226.245 188.66 C 224.143 189.06 221.503 189.602 219.455 188.722 C 218.461 188.295 218.241 188.137 217.915 187.11 C 218.612 185.809 219.612 185.2 220.787 184.38 C 224.234 184.253 226.124 182.661 228.82 180.746 Z"/>
  <path fill="#E2B93A" d="M 211.147 151.692 C 213.886 151.466 216.459 151.225 219.199 151.588 C 219.494 151.627 219.79 151.657 220.085 151.694 C 220.267 151.717 220.448 151.744 220.629 151.769 C 222.204 152.021 223.784 152.241 225.368 152.429 C 224.277 153.649 223.542 154.193 223.187 155.812 C 223.837 156.558 224.435 156.931 225.273 157.419 C 226.399 158.075 226.95 158.614 227.725 159.648 C 227.821 160.377 228.049 160.696 227.59 161.336 C 226.89 162.311 225.893 162.951 224.935 163.649 L 225.052 164.284 C 228.598 166.088 241.261 162.872 242.767 166.486 L 241.968 167.321 C 238.866 167.206 235.775 166.869 232.684 166.58 L 231.878 167.473 C 232.3 168.908 232.964 170.358 234.12 171.366 C 235.906 171.048 237.752 170.528 239.53 171.055 L 240.139 171.93 C 239.203 173.867 237.151 173.476 235.884 175.209 C 236.451 175.86 236.98 176.33 237.671 176.832 C 238.649 177.541 238.27 177.152 238.911 178.067 C 233.212 181.892 230.668 176.658 225.068 175.766 C 224.045 175.603 223.019 175.458 221.99 175.331 C 227.472 173.492 230.612 178.57 235.639 178.532 C 236.467 178.526 236.984 178.644 237.606 178.038 C 236.456 177.352 235.515 176.781 234.626 175.749 C 235.223 173.963 237.611 172.95 239.177 171.9 C 237.766 171.563 236.397 171.991 234.989 172.179 C 230.68 172.754 227.224 170.634 223.541 168.704 C 222.548 169.505 221.348 170.313 220.731 171.452 C 220.228 172.382 219.767 173.328 219.242 174.253 L 216.726 173.779 L 216.006 174.354 C 216.695 175.224 217.273 175.633 217.355 176.771 L 216.569 176.974 C 215.336 176.334 215.221 176.247 214.541 175.041 C 214.722 173.582 215.057 173.093 215.93 171.94 C 216.318 171.428 217.019 170.737 217.222 170.129 C 217.618 168.944 217.517 167.975 216.8 166.935 C 215.557 165.135 213.25 164.654 211.22 164.556 C 210.521 164.522 210.895 164.663 210.266 163.995 L 210.468 162.955 C 211.789 162.175 213.165 161.476 213.633 159.882 C 214.491 156.96 212.501 154.118 211.147 151.692 Z"/>
  <path fill="#EDCB63" d="M 223.367 167.848 C 226.66 167.847 229.474 167.068 232.684 166.58 L 231.878 167.473 C 232.3 168.908 232.964 170.358 234.12 171.366 C 230.403 172.272 226.478 169.561 223.367 167.848 Z"/>
  <path fill="#E2B93A" d="M 336.144 295.014 C 336.203 290.033 336.259 285.062 336.542 280.087 C 337.381 282.968 338.069 286 339.418 288.688 L 339.849 288.561 C 342.236 296.479 342.306 306.975 341.014 315.101 C 335.981 321.035 336.423 330.597 330.48 332.757 C 330.216 333.984 330.005 335.164 329.879 336.413 C 329.75 337.691 329.386 338.56 328.845 339.717 C 326.802 341.801 324.461 345.041 321.321 345.12 C 319.832 345.157 317.968 344.092 316.605 343.539 C 314.368 342.632 312.484 343.193 310.239 343.765 C 308.112 347.576 310.85 349.548 311.815 353.141 L 310.995 353.785 C 309.822 353.476 309.314 353.093 308.595 352.087 C 304.992 347.048 298.438 346.439 294.483 341.386 C 293.907 340.362 293.374 340.352 292.341 339.86 C 293.986 339.221 295.363 338.929 297.124 339.054 C 298.53 339.154 300.04 339.381 301.399 338.925 C 302.335 338.61 302.759 337.052 303.184 336.185 C 300.845 334.357 298.77 331.8 297.094 329.372 C 299.651 328.584 303.128 326.056 305.719 326.404 C 308.402 330.217 311.669 331.517 315.914 332.931 C 315.968 332.877 316.022 332.823 316.077 332.77 C 319.081 329.888 320.563 325.836 323.398 323.147 C 324.398 322.199 326.038 322.585 327.306 322.609 C 328.252 321.084 328.245 319.149 328.419 317.395 L 327.859 317.169 L 328.395 316.751 C 327.385 316.956 326.395 317.095 325.371 317.205 L 324.713 316.632 L 324.618 314.343 L 324.171 314.006 C 323.101 315.121 322.016 316.677 320.433 316.961 L 319.539 316.136 C 319.079 314.543 319.378 313.782 319.971 312.249 C 320.04 312.071 320.113 311.895 320.184 311.718 C 319.938 310.067 318.388 308.889 317.255 307.756 L 315.959 306.989 C 316.336 304.667 317.53 300.162 319.455 298.625 C 320.434 297.844 320.885 298.044 321.97 298.309 C 323.413 299.775 322.302 299.86 323.145 301.379 L 324.205 301.631 C 325.294 300.959 325.352 300.823 325.898 299.656 C 325.751 297.586 325.547 296.052 324.587 294.195 C 326.162 293.411 328.254 293.982 329.901 294.408 C 329.83 294.653 329.757 294.898 329.689 295.144 C 329.446 296.028 329.462 295.673 329.513 296.323 C 330.934 297.069 331.42 297.131 332.175 298.591 C 331.832 299.909 331.42 300.673 330.675 301.78 C 330.249 303.008 330.146 303.763 330.256 305.058 L 330.625 305.457 C 330.756 305.065 331.03 304.189 331.235 303.852 C 332.045 302.519 333.126 303.642 334.433 303.113 C 335.782 300.458 335.762 297.912 336.144 295.014 Z"/>
  <path fill="#EDCB63" d="M 324.587 294.195 C 326.162 293.411 328.254 293.982 329.901 294.408 C 329.83 294.653 329.757 294.898 329.689 295.144 C 329.446 296.028 329.462 295.673 329.513 296.323 C 330.934 297.069 331.42 297.131 332.175 298.591 C 331.832 299.909 331.42 300.673 330.675 301.78 C 330.249 303.008 330.146 303.763 330.256 305.058 L 330.625 305.457 C 330.756 305.065 331.03 304.189 331.235 303.852 C 332.045 302.519 333.126 303.642 334.433 303.113 C 335.782 300.458 335.762 297.912 336.144 295.014 C 336.607 302.456 337.238 308.269 333.659 315.209 C 332.153 318.128 330.41 320.723 330.064 324.058 L 329.439 324.69 L 328.711 324.549 C 327.556 322.032 328.95 318.245 329.735 315.688 C 328.531 315.964 327.5 316.182 326.256 316.194 C 325.376 315.432 323.606 311.033 323.858 309.87 C 324.069 308.895 325.032 309.289 324.929 307.868 C 322.794 306.93 319.563 307.615 317.255 307.756 L 315.959 306.989 C 316.336 304.667 317.53 300.162 319.455 298.625 C 320.434 297.844 320.885 298.044 321.97 298.309 C 323.413 299.775 322.302 299.86 323.145 301.379 L 324.205 301.631 C 325.294 300.959 325.352 300.823 325.898 299.656 C 325.751 297.586 325.547 296.052 324.587 294.195 Z"/>
  <path fill="#F2D989" d="M 225.368 152.429 C 227.156 152.544 228.945 152.643 230.735 152.726 L 235.253 153.767 C 244.91 157.007 255.448 159.778 264.306 164.847 C 271.424 168.921 277.409 175.102 283.328 180.712 C 303.149 199.497 314.085 211.356 326.275 236.061 C 332.535 248.748 335.082 261.902 337.629 275.666 C 338.413 279.906 339.486 284.275 339.849 288.561 L 339.418 288.688 C 338.069 286 337.381 282.968 336.542 280.087 C 336.259 285.062 336.203 290.033 336.144 295.014 C 335.762 297.912 335.782 300.458 334.433 303.113 C 333.126 303.642 332.045 302.519 331.235 303.852 C 331.03 304.189 330.756 305.065 330.625 305.457 L 330.256 305.058 C 330.146 303.763 330.249 303.008 330.675 301.78 C 331.42 300.673 331.832 299.909 332.175 298.591 C 331.42 297.131 330.934 297.069 329.513 296.323 C 329.462 295.673 329.446 296.028 329.689 295.144 C 329.757 294.898 329.83 294.653 329.901 294.408 C 328.254 293.982 326.162 293.411 324.587 294.195 C 325.547 296.052 325.751 297.586 325.898 299.656 C 325.352 300.823 325.294 300.959 324.205 301.631 L 323.145 301.379 C 322.302 299.86 323.413 299.775 321.97 298.309 C 320.885 298.044 320.434 297.844 319.455 298.625 C 317.53 300.162 316.336 304.667 315.959 306.989 L 314.282 305.97 C 314.073 305.902 313.862 305.843 313.657 305.766 C 309.485 304.187 305.167 297.408 303.444 293.584 L 302.472 293.252 C 301.376 293.811 300.851 294.51 300.448 295.693 C 298.807 300.518 306.727 303.16 307.591 307.081 C 307.886 308.424 307.62 308.837 306.912 309.874 C 303.861 309.968 301.295 306.148 298.6 304.84 C 298.435 304.76 298.26 304.703 298.09 304.634 C 293.339 302.479 289.323 298.702 285.279 295.459 C 283.479 293.803 283.03 290.885 282.47 288.593 L 282.192 288.314 C 276.664 287.471 273.261 283.232 268.141 281.408 C 266.564 282.221 265.529 282.627 263.73 282.523 C 263.584 282.514 263.438 282.499 263.292 282.488 C 260.367 282.519 255.121 280.038 252.898 278.223 C 251.801 277.327 251.501 276.814 251.299 275.437 C 252.568 274.241 254.159 275.665 255.861 274.818 C 256.104 272.682 254.729 270.764 253.818 268.833 C 251.556 265.539 249.917 263.829 248.98 259.761 C 247.499 256.623 247.477 252.817 245.477 249.92 C 243.206 248.176 242.674 247.001 242.162 244.221 C 242.124 242.112 244.666 237.589 244.362 236.486 C 243.971 235.067 242.26 234.49 242.27 232.667 L 243.703 231.561 C 242.175 229.917 241.191 228.903 240.741 226.668 C 240.535 226.003 240.693 226.339 240.159 225.633 C 238.902 223.97 238.128 222.75 237.616 220.723 L 237.688 220.052 C 236.503 218.566 235.528 216.883 234.499 215.285 C 234.978 214.641 235.718 214.175 236.206 213.527 C 236.998 212.477 236.915 212.242 236.784 211 C 236.048 210.637 235.39 210.4 234.882 209.722 C 234.482 209.187 234.788 208.771 234.926 208.171 C 234.564 207.749 233.989 207.159 233.756 206.631 C 232.893 204.667 233.233 202.342 233.995 200.417 L 233.809 200.191 C 234.547 197.627 240.597 193.689 242.293 190.241 C 242.141 189.384 242.208 189.32 241.623 188.603 L 237.558 189.771 L 237.108 189.441 L 237.442 188.197 C 240.721 185.863 246.272 187.445 250.115 186.655 C 250.254 186.627 250.392 186.592 250.53 186.56 C 252.199 185.309 254.187 184.289 255.975 183.2 C 253.663 183.067 251.352 182.67 249.059 182.354 C 250.197 181.608 251.248 181.006 251.665 179.616 C 252.406 177.146 251.464 174.723 250.446 172.482 C 248.18 175.196 246.498 176.695 246.758 180.449 C 245.303 181.239 244.399 181.168 242.814 180.703 C 241.639 180.358 240.018 179.936 239.309 178.845 C 239.15 178.601 239.044 178.327 238.911 178.067 C 238.27 177.152 238.649 177.541 237.671 176.832 C 236.98 176.33 236.451 175.86 235.884 175.209 C 237.151 173.476 239.203 173.867 240.139 171.93 L 239.53 171.055 C 237.752 170.528 235.906 171.048 234.12 171.366 C 232.964 170.358 232.3 168.908 231.878 167.473 L 232.684 166.58 C 235.775 166.869 238.866 167.206 241.968 167.321 L 242.767 166.486 C 241.261 162.872 228.598 166.088 225.052 164.284 L 224.935 163.649 C 225.893 162.951 226.89 162.311 227.59 161.336 C 228.049 160.696 227.821 160.377 227.725 159.648 C 226.95 158.614 226.399 158.075 225.273 157.419 C 224.435 156.931 223.837 156.558 223.187 155.812 C 223.542 154.193 224.277 153.649 225.368 152.429 Z"/>
  <path fill="#E2B93A" d="M 234.926 208.171 C 234.564 207.749 233.989 207.159 233.756 206.631 C 232.893 204.667 233.233 202.342 233.995 200.417 C 235.013 201.498 235.837 202.203 235.91 203.816 C 235.971 205.175 235.327 206.884 234.926 208.171 Z"/>
  <path fill="#EDCB63" d="M 245.512 237.576 C 248.839 236.702 248.054 234.339 251.726 236.18 L 252.154 237.178 C 251.29 238.541 249.889 239.219 248.548 240.046 C 247.279 239.745 246.529 239.815 245.65 238.795 L 245.846 238.008 L 245.512 237.576 Z"/>
  <path fill="#EDCB63" d="M 309.334 273.963 C 311.691 273.823 312.926 275.105 314.734 276.485 C 313.119 278.054 311.351 279.585 309.87 281.276 C 309.553 280.696 309.148 280.216 308.754 279.684 C 306.497 276.641 308.874 276.928 309.334 273.963 Z"/>
  <path fill="#EDCB63" d="M 241.11 212.858 C 240.757 211.798 240.322 210.769 239.961 209.725 C 239.188 207.496 240.368 202.132 241.559 200.169 C 242.346 198.872 243.765 197.015 245.249 196.546 C 245.892 196.342 246.319 196.627 246.917 196.827 C 247.399 198.474 246.904 199.471 246.101 200.934 C 245.282 202.427 241.881 206.469 241.736 207.628 C 241.518 209.376 242.104 211.228 241.914 213.024 L 241.11 212.858 Z"/>
  <path fill="#EDCB63" d="M 250.846 218.737 C 253.199 219.297 255.284 220.294 257.466 221.305 C 257.993 222.199 258.047 222.339 258.125 223.306 C 260.102 225.567 264.247 229.128 264.146 232.395 C 264.13 232.91 263.95 233.282 263.772 233.74 C 260.027 233.243 261.076 229.893 258.434 228.795 C 256.903 228.159 256.541 229.195 255.171 227.697 C 255.168 226.922 255.253 225.921 255.071 225.174 C 254.738 223.809 254.013 223.614 252.9 222.907 L 253.112 222.331 C 252.954 220.842 251.784 219.826 250.846 218.737 Z"/>
  <path fill="#EDCB63" d="M 225.368 152.429 C 227.156 152.544 228.945 152.643 230.735 152.726 L 235.253 153.767 C 233.829 154.833 232.875 155.521 232.15 157.173 C 232.158 158.487 232.105 158.822 233.133 159.801 C 236.647 163.148 246.315 162.901 250.116 167.444 L 250.213 168.435 C 247.935 169.284 244.901 170.846 242.495 170.182 C 241.699 168.981 241.854 168.783 241.968 167.321 L 242.767 166.486 C 241.261 162.872 228.598 166.088 225.052 164.284 L 224.935 163.649 C 225.893 162.951 226.89 162.311 227.59 161.336 C 228.049 160.696 227.821 160.377 227.725 159.648 C 226.95 158.614 226.399 158.075 225.273 157.419 C 224.435 156.931 223.837 156.558 223.187 155.812 C 223.542 154.193 224.277 153.649 225.368 152.429 Z"/>
  <path fill="#EDCB63" d="M 293.136 254.772 C 290.75 253.979 287.821 253.567 285.854 251.98 L 285.785 251.208 C 289.31 248.216 293.86 250.565 298.066 246.789 C 298.217 246.653 298.365 246.515 298.515 246.378 L 299.721 246.738 L 299.442 248.049 L 300.786 248.648 L 302.736 250.4 C 301.458 251.345 299.968 251.961 299.553 253.524 C 300.173 254.435 300.776 255.008 301.636 255.694 C 303.007 255.948 303.655 256.743 304.844 257.198 L 307.057 259.11 C 308.938 259.36 310.829 259.573 312.685 259.974 C 313.647 261.229 314.346 262.2 314.802 263.725 L 314.248 264.336 C 312.219 263.988 311.084 263.068 309.418 261.922 C 309.163 261.746 308.903 261.577 308.645 261.404 C 307.717 262.747 306.803 264.101 305.904 265.464 C 303.476 262.887 302.324 264.914 299.637 263.85 C 299.685 262.414 300.254 261.79 300.986 260.573 C 299.76 259.448 299.288 258.588 297.492 258.637 C 293.428 258.749 289.054 263.176 286.523 266.03 C 285.039 264.602 284.081 262.842 283.015 261.097 L 284.296 260.535 L 286.262 260.91 L 287.25 261.368 C 289.755 260.232 291.603 256.998 293.136 254.772 Z"/>
  <path fill="#EDCB63" d="M 313.702 269.75 C 314.168 268.428 314.511 267.52 315.516 266.485 L 316.261 266.441 C 316.741 267.718 316.827 269.918 317.907 270.638 C 320.027 269.09 322.036 265.256 322.438 262.648 C 322.474 262.414 322.499 262.178 322.529 261.943 L 323.056 262.067 C 324.325 264.465 324.87 267.058 325.509 269.672 C 324.59 272.358 324.193 274.335 321.778 276.103 C 323.814 277.081 325.922 278 328.103 278.604 C 328.446 277.881 328.484 277.52 329.163 277.062 C 330.156 277.594 330.649 278.069 331.059 279.157 C 332.002 281.655 331.175 287.076 329.852 289.349 C 329.352 290.207 328.793 290.784 327.796 291.061 C 326.455 291.434 325.876 290.622 324.89 289.872 L 323.473 289.783 C 322.813 290.575 322.733 290.743 322.55 291.757 C 322.238 293.361 321.81 295.025 321.716 296.653 L 320.575 296.416 C 319.056 294.876 319.608 293.677 318.593 291.961 L 317.89 292.463 C 316.838 291.92 316.178 291.606 315.517 290.604 C 316.245 289.579 317.106 288.849 318.052 288.039 L 318.704 285.499 C 316.455 284.447 314.295 283.277 312.125 282.078 C 314.333 281.309 316.605 280.713 318.853 280.072 C 316.876 276.749 315.264 273.281 313.702 269.75 Z"/>
  <path fill="#E2B93A" d="M 318.704 285.499 C 318.66 283.675 318.521 281.757 318.694 279.94 C 318.865 278.148 319.736 277.666 321.053 276.664 C 322.647 279.961 322.089 284.821 321.03 288.285 C 320.888 288.75 320.779 288.872 320.539 289.232 L 318.052 288.039 L 318.704 285.499 Z"/>
  <path fill="#E2B93A" d="M 241.11 212.858 L 241.914 213.024 C 244.279 215.808 247.645 217.124 250.846 218.737 C 251.784 219.826 252.954 220.842 253.112 222.331 L 252.9 222.907 C 250.369 222.114 248.24 221.619 245.645 222.388 L 245.011 223.284 C 245.662 227.081 250.289 228.774 252.834 231.36 C 250.494 231.708 247.755 231.765 245.829 233.224 C 245.041 234.883 245.092 235.819 245.512 237.576 L 245.846 238.008 L 245.65 238.795 C 246.529 239.815 247.279 239.745 248.548 240.046 C 248.879 240.122 249.212 240.187 249.541 240.274 C 251.069 240.678 251.901 241.685 253.012 242.725 C 253.788 243.451 253.431 243.202 254.504 243.557 C 255.133 242.794 255.313 242.431 255.645 241.535 C 257.708 241.08 260.081 242.334 262.196 242.469 C 262.403 242.591 262.612 242.712 262.817 242.836 C 264.901 244.101 267.611 247.516 270.141 247.289 C 270.4 246.753 270.699 246.547 270.451 245.958 C 270.148 245.235 269.663 244.768 269.142 244.201 L 269.182 242.834 C 271.518 243.95 273.223 245.714 274.678 247.837 L 276.158 250.062 C 278.252 253.732 280.269 257.87 283.015 261.097 C 284.081 262.842 285.039 264.602 286.523 266.03 C 287.892 267.244 289.249 268.455 290.549 269.744 C 292.651 268.797 295.551 266.725 297.723 266.856 C 299.013 267.915 299.481 269.589 300.107 271.089 C 300.884 271.846 301.53 272.358 302.469 272.904 C 303.518 273.513 304.01 274.063 304.729 275.029 C 306.372 274.238 307.52 274.04 309.334 273.963 C 308.874 276.928 306.497 276.641 308.754 279.684 C 309.148 280.216 309.553 280.696 309.87 281.276 C 308.278 282.436 306.761 283.45 304.98 284.296 C 305.816 285.158 306.512 285.855 307.087 286.923 C 307.229 287.048 307.37 287.175 307.513 287.299 C 309.319 288.855 313.164 289.732 313.572 292.088 C 312.056 293.083 309.778 291.51 308.51 292.525 C 309.17 293.853 309.818 294.552 310.869 295.558 C 313.536 294.89 315.684 294.164 317.89 292.463 L 318.593 291.961 C 319.608 293.677 319.056 294.876 320.575 296.416 L 321.716 296.653 L 324.587 294.195 C 325.547 296.052 325.751 297.586 325.898 299.656 C 325.352 300.823 325.294 300.959 324.205 301.631 L 323.145 301.379 C 322.302 299.86 323.413 299.775 321.97 298.309 C 320.885 298.044 320.434 297.844 319.455 298.625 C 317.53 300.162 316.336 304.667 315.959 306.989 L 314.282 305.97 C 314.073 305.902 313.862 305.843 313.657 305.766 C 309.485 304.187 305.167 297.408 303.444 293.584 L 302.472 293.252 C 301.376 293.811 300.851 294.51 300.448 295.693 C 298.807 300.518 306.727 303.16 307.591 307.081 C 307.886 308.424 307.62 308.837 306.912 309.874 C 303.861 309.968 301.295 306.148 298.6 304.84 C 298.435 304.76 298.26 304.703 298.09 304.634 C 293.339 302.479 289.323 298.702 285.279 295.459 C 283.479 293.803 283.03 290.885 282.47 288.593 L 282.192 288.314 C 276.664 287.471 273.261 283.232 268.141 281.408 C 266.564 282.221 265.529 282.627 263.73 282.523 C 263.584 282.514 263.438 282.499 263.292 282.488 C 260.367 282.519 255.121 280.038 252.898 278.223 C 251.801 277.327 251.501 276.814 251.299 275.437 C 252.568 274.241 254.159 275.665 255.861 274.818 C 256.104 272.682 254.729 270.764 253.818 268.833 C 251.556 265.539 249.917 263.829 248.98 259.761 C 247.499 256.623 247.477 252.817 245.477 249.92 C 243.206 248.176 242.674 247.001 242.162 244.221 C 242.124 242.112 244.666 237.589 244.362 236.486 C 243.971 235.067 242.26 234.49 242.27 232.667 L 243.703 231.561 C 242.175 229.917 241.191 228.903 240.741 226.668 C 240.535 226.003 240.693 226.339 240.159 225.633 C 238.902 223.97 238.128 222.75 237.616 220.723 L 237.688 220.052 C 239.432 217.958 240.178 215.384 241.11 212.858 Z"/>
  <path fill="#F2D989" d="M 242.162 244.221 C 243.723 244.72 245.206 245.144 246.6 246.037 C 246.929 246.769 247.314 247.043 246.972 247.827 C 246.602 248.673 246.078 249.235 245.477 249.92 C 243.206 248.176 242.674 247.001 242.162 244.221 Z"/>
  <path fill="#EDCB63" d="M 240.741 226.668 C 242.547 226.613 243.92 226.149 245.23 227.709 C 245.661 228.222 245.892 228.894 245.705 229.532 C 245.502 230.222 245.063 230.905 244.427 231.286 C 244.206 231.419 243.944 231.47 243.703 231.561 C 242.175 229.917 241.191 228.903 240.741 226.668 Z"/>
  <path fill="#EDCB63" d="M 287.623 294.057 L 288.186 293.627 L 289.926 294.963 C 290.791 296.126 291.723 297.54 292.823 298.473 C 294.89 300.228 298.733 300.704 300.125 303.045 C 299.5 303.956 299.043 304.123 298.09 304.634 C 293.339 302.479 289.323 298.702 285.279 295.459 L 287.623 294.057 Z"/>
  <path fill="#F2D989" d="M 248.98 259.761 C 250.005 259.485 249.9 259.632 250.794 260.157 C 253.963 262.017 256.019 264.645 258.505 267.246 C 258.311 268.69 258.407 268.995 257.419 270.029 C 255.957 269.976 255.071 269.5 253.818 268.833 C 251.556 265.539 249.917 263.829 248.98 259.761 Z"/>
  <path fill="#EDCB63" d="M 300.107 271.089 C 300.884 271.846 301.53 272.358 302.469 272.904 C 303.518 273.513 304.01 274.063 304.729 275.029 L 301.776 277.176 C 301.188 278.695 301.02 278.937 299.76 279.967 L 298.866 279.624 C 298.291 278.048 298.527 276.305 298.579 274.653 L 298.331 274.82 L 298.557 273.903 C 297.031 273.52 295 274.33 293.378 274.45 L 292.456 274.512 C 291.815 273.687 291.544 273.316 291.236 272.291 C 293.614 270.643 296.848 272.331 299.498 271.344 C 299.704 271.267 299.904 271.174 300.107 271.089 Z"/>
  <path fill="#EDCB63" d="M 307.087 286.923 C 307.229 287.048 307.37 287.175 307.513 287.299 C 309.319 288.855 313.164 289.732 313.572 292.088 C 312.056 293.083 309.778 291.51 308.51 292.525 C 309.17 293.853 309.818 294.552 310.869 295.558 L 309.413 296.46 C 307.427 296.062 305.781 294.041 304.252 292.758 L 302.943 292.593 C 302.245 291.003 300.548 289.936 300.196 288.424 L 300.879 287.79 C 302.479 287.792 303.58 288.391 304.987 289.064 C 305.787 289.446 305.384 289.442 306.153 289.176 L 307.087 286.923 Z"/>
  <path fill="#F2D989" d="M 249.809 247.967 C 255.802 249.479 264.159 252.11 267.86 257.411 C 268.502 258.513 269.045 259.337 269.311 260.604 C 270.179 262.16 271.123 263.547 272.115 265.018 C 272.594 265.728 272.433 265.487 272.556 266.491 C 270.911 265.753 269.137 265.189 267.445 264.555 L 266.266 263.107 C 265.909 261.89 266.225 261.195 266.642 260.06 C 266.696 259.911 266.754 259.763 266.81 259.615 C 261.891 254.985 256.583 254.881 253.176 252.022 C 251.908 250.958 250.819 249.281 249.809 247.967 Z"/>
  <path fill="#EDCB63" d="M 267.86 257.411 C 269.361 257.15 270.204 257.254 271.293 256.152 C 271.397 254.061 268.489 250.846 269.356 249.442 C 270.599 249.483 270.983 249.353 272.083 250.005 L 272.923 253.478 C 273.66 256.552 275.626 259.706 277.521 262.189 C 278.237 263.126 279.022 264.098 279.643 265.099 C 281.473 267.149 283.127 268.402 282.923 271.344 C 282.881 271.957 282.81 272.569 282.741 273.179 C 283.484 274.296 284.061 274.544 285.394 274.792 C 287.403 275.165 289.665 275.044 291.704 275.034 C 292.199 276.311 292.086 277.045 291.502 278.311 C 290.491 280.501 286.544 282.595 286.259 284.478 C 287.476 285.057 288.597 285.264 289.877 285.605 C 290.743 285.835 290.443 285.739 291.205 286.429 C 290.475 288.098 287.27 288.836 285.795 290.034 C 284.628 289.152 283.858 288.92 282.47 288.593 L 282.192 288.314 C 280.191 283.816 277.977 284.773 278.152 278.746 L 279.55 276.151 L 280.505 274.839 C 280.418 274.027 280.332 273.245 280.16 272.445 C 279.767 270.623 279.503 268.834 277.893 267.859 L 275.386 267.88 C 274.106 267.724 273.558 267.241 272.556 266.491 C 272.433 265.487 272.594 265.728 272.115 265.018 C 271.123 263.547 270.179 262.16 269.311 260.604 C 269.045 259.337 268.502 258.513 267.86 257.411 Z"/>
  <path fill="#E2B93A" d="M 269.311 260.604 C 269.901 259.754 269.861 259.598 270.858 259.166 C 272.626 259.711 273.449 260.805 274.269 262.386 C 275.19 264.163 275.455 265.896 275.386 267.88 C 274.106 267.724 273.558 267.241 272.556 266.491 C 272.433 265.487 272.594 265.728 272.115 265.018 C 271.123 263.547 270.179 262.16 269.311 260.604 Z"/>
  <path fill="#D3A931" d="M 267.445 264.555 C 269.137 265.189 270.911 265.753 272.556 266.491 C 273.558 267.241 274.106 267.724 275.386 267.88 L 277.893 267.859 C 279.503 268.834 279.767 270.623 280.16 272.445 C 280.332 273.245 280.418 274.027 280.505 274.839 L 279.55 276.151 L 278.152 278.746 C 277.977 284.773 280.191 283.816 282.192 288.314 C 276.664 287.471 273.261 283.232 268.141 281.408 C 266.564 282.221 265.529 282.627 263.73 282.523 C 263.584 282.514 263.438 282.499 263.292 282.488 C 260.367 282.519 255.121 280.038 252.898 278.223 C 251.801 277.327 251.501 276.814 251.299 275.437 C 252.568 274.241 254.159 275.665 255.861 274.818 C 256.104 272.682 254.729 270.764 253.818 268.833 C 255.071 269.5 255.957 269.976 257.419 270.029 C 258.407 268.995 258.311 268.69 258.505 267.246 C 260.038 267.88 261.639 269.269 263.306 269.5 C 264.787 269.705 265.01 269.549 266.133 268.712 C 266.846 267.268 267.225 266.154 267.445 264.555 Z"/>
  <path fill="#F2D989" d="M 269.154 275.736 L 269.104 274.826 L 270.55 274.154 C 270.599 272.415 270.407 271.231 271.308 269.685 C 272.259 269.427 272.492 269.329 273.422 269.818 C 275.941 271.138 277.959 273.853 279.55 276.151 L 278.152 278.746 C 275.194 277.166 272.598 275.783 269.154 275.736 Z"/>
  <path fill="#E2B93A" d="M 269.154 275.736 C 272.598 275.783 275.194 277.166 278.152 278.746 C 277.977 284.773 280.191 283.816 282.192 288.314 C 276.664 287.471 273.261 283.232 268.141 281.408 C 266.564 282.221 265.529 282.627 263.73 282.523 C 263.584 282.514 263.438 282.499 263.292 282.488 C 262.846 281.467 262.606 280.708 262.511 279.597 C 263.936 277.63 265.47 278.786 267.333 278.003 C 268.627 277.459 268.713 276.941 269.154 275.736 Z"/>
  <path fill="url(#gradient_2)" d="M 135.82 187.063 C 136.076 187.158 136.335 187.243 136.588 187.347 C 137.458 187.703 137.769 187.929 138.369 188.606 L 139.343 188.735 C 140.359 187.628 141.582 185.685 143.031 185.497 C 143.829 186.65 144.178 187.675 144.566 188.996 L 144.329 193.917 C 144.535 195.539 144.784 197.002 145.664 198.411 C 149.477 204.517 154.614 210.294 158.915 216.123 C 167.148 227.283 175.107 238.637 183.402 249.752 C 184.361 251.038 184.47 252.253 184.294 253.823 L 184.879 253.217 L 184.208 254.259 C 185.209 255.23 186.197 256.007 187.323 256.831 C 190.108 258.867 191.927 261.81 193.153 265.028 C 197.28 268.089 202.87 271.261 206.046 275.223 C 204.726 276.657 202.851 278.249 202.295 280.149 L 202.682 281.483 C 205.348 283.354 208.198 287.507 211.243 288.331 C 212.595 288.697 213.581 288.785 214.479 289.91 C 216.49 292.432 218.028 295.588 219.843 298.284 C 223.333 303.467 227.244 308.364 230.814 313.493 C 232.464 315.863 233.746 318.469 235.42 320.822 C 238.704 325.438 243.151 329.746 245.82 334.739 C 246.106 335.274 246.222 335.734 246.369 336.318 L 245.916 336.953 L 244.826 337.016 C 250.007 340.655 252.604 344.804 256.629 349.401 C 259.642 351.568 265.605 361.474 266.529 364.933 C 266.583 365.135 266.641 365.335 266.697 365.536 C 271.188 367.474 276.197 369.491 280.456 371.844 C 282.361 372.897 283.931 374.463 285.803 375.571 C 289.051 375.591 296.257 374.677 298.792 376.642 L 299.589 378.563 L 299.156 378.861 C 300.312 380.001 301.463 380.763 302.857 381.589 L 302.895 382.115 C 301.001 382.091 299.016 381.89 297.206 382.522 C 296.82 383.377 296.35 384.248 296.088 385.148 C 299.742 386.113 303.451 386.506 307.196 386.956 C 303.524 390.193 299.245 394.54 294.925 396.739 L 294.879 397.255 C 292.706 399.182 290.556 401.141 288.255 402.915 L 283.508 405.737 C 279.384 407.372 275.597 409.776 271.776 412.011 C 270.172 413.185 268.626 414.167 266.837 415.037 C 265.537 415.986 264.256 416.772 262.837 417.529 C 261.11 419.037 259.472 420.468 258.017 422.253 L 255.984 425.184 L 254.887 426.406 L 254.469 427.42 C 253.65 427.94 252.785 428.432 252.006 429.01 L 250.843 429.51 C 245.411 432.457 239.596 432.831 233.66 431.424 C 226.77 429.068 220.411 424.841 213.397 423.032 C 207.939 421.624 201.835 422.495 196.249 421.458 C 170.589 416.696 148.228 403.51 130.21 384.868 C 126.758 381.443 117.977 369.809 114.939 363.998 C 108.333 351.361 103.343 331.607 100.746 317.508 C 99.806 312.41 99.36 307.231 98.433 302.13 L 98.09 299.16 C 95.534 283.094 96.207 268.407 99.975 252.565 C 102.234 237.385 112.925 216.093 121.866 203.618 C 126.076 197.744 130.992 192.426 135.82 187.063 Z"/>
  <path fill="#6C4916" d="M 118.885 249.633 L 119.381 249.822 C 117.164 251.812 114.815 253.577 113.153 256.109 C 112.255 255.966 112.329 255.879 111.711 255.29 C 111.757 255.105 111.776 254.911 111.849 254.735 C 112.822 252.391 116.69 250.749 118.885 249.633 Z"/>
  <path fill="#A77A10" d="M 135.666 198.564 C 136.724 198.734 137.258 199.169 138.101 199.807 C 138.273 200.81 138.448 200.596 137.934 201.323 C 136.705 203.059 135.025 203.43 133.03 203.696 C 131.657 203.576 131.187 203.72 130.137 202.781 C 131.05 200.503 133.564 199.595 135.666 198.564 Z"/>
  <path fill="#83550F" d="M 203.305 354.976 C 207.147 355.447 211.73 356.007 214.483 359.046 C 215.816 360.516 216.159 361.883 215.99 363.813 C 212.539 363.129 205.249 361.823 203.32 358.61 C 202.472 357.196 202.942 356.441 203.305 354.976 Z"/>
  <path fill="#6C4916" d="M 291.027 395.707 C 292.793 395.691 293.433 395.795 294.925 396.739 L 294.879 397.255 C 292.706 399.182 290.556 401.141 288.255 402.915 L 283.508 405.737 C 279.384 407.372 275.597 409.776 271.776 412.011 C 270.172 413.185 268.626 414.167 266.837 415.037 C 267.55 412.606 270.051 409.977 271.266 407.627 C 273.402 407.801 276.306 405.84 278.716 405.459 C 279.313 405.314 279.905 405.149 280.49 404.964 C 285.06 403.486 288.836 399.907 291.027 395.707 Z"/>
  <path fill="#83550F" d="M 271.266 407.627 C 273.402 407.801 276.306 405.84 278.716 405.459 C 275.778 407.243 273.257 408.747 271.776 412.011 C 270.172 413.185 268.626 414.167 266.837 415.037 C 267.55 412.606 270.051 409.977 271.266 407.627 Z"/>
  <path fill="#83550F" d="M 291.027 395.707 C 293.093 393.972 295.014 390.562 296.716 388.395 C 295.772 387.129 293.829 386.958 292.307 386.538 L 291.956 385.631 C 292.242 385.456 292.507 385.241 292.814 385.106 C 294.094 384.543 294.825 384.811 296.088 385.148 C 299.742 386.113 303.451 386.506 307.196 386.956 C 303.524 390.193 299.245 394.54 294.925 396.739 C 293.433 395.795 292.793 395.691 291.027 395.707 Z"/>
  <path fill="#A77A10" d="M 256.629 349.401 C 259.642 351.568 265.605 361.474 266.529 364.933 C 266.583 365.135 266.641 365.335 266.697 365.536 C 262.118 363.377 255.185 358.573 252.555 354.227 C 251.739 352.878 251.799 352.067 252.21 350.593 C 253.756 349.37 254.696 349.558 256.629 349.401 Z"/>
  <path fill="#A77A10" d="M 144.329 193.917 C 144.535 195.539 144.784 197.002 145.664 198.411 C 149.477 204.517 154.614 210.294 158.915 216.123 C 167.148 227.283 175.107 238.637 183.402 249.752 C 184.361 251.038 184.47 252.253 184.294 253.823 L 184.879 253.217 L 184.208 254.259 C 185.209 255.23 186.197 256.007 187.323 256.831 C 190.108 258.867 191.927 261.81 193.153 265.028 C 190.213 263.824 187.31 263.014 184.201 262.391 C 180.432 256.442 177.962 248.88 173.371 243.505 C 171.02 240.754 167.393 240.078 164.803 237.812 C 161.949 235.316 160.6 231.382 158.718 228.201 C 156.695 224.781 154.231 224.344 150.664 223.336 C 145.199 213.585 142.664 205.075 144.329 193.917 Z"/>
  <path fill="#A77A10" d="M 202.682 281.483 C 205.348 283.354 208.198 287.507 211.243 288.331 C 212.595 288.697 213.581 288.785 214.479 289.91 C 216.49 292.432 218.028 295.588 219.843 298.284 C 223.333 303.467 227.244 308.364 230.814 313.493 C 232.464 315.863 233.746 318.469 235.42 320.822 C 238.704 325.438 243.151 329.746 245.82 334.739 C 246.106 335.274 246.222 335.734 246.369 336.318 L 245.916 336.953 L 244.826 337.016 C 237.54 332.392 238.303 325.463 232.709 322.193 L 232.01 322.689 C 231.256 325.151 231.443 327.884 231.403 330.443 C 230.733 331.531 230.682 331.532 229.485 331.997 C 226.006 330.98 225.182 325.72 221.748 323.302 C 220.176 322.195 218.714 321.055 217.232 319.828 C 217.413 318.548 218.005 316.017 217.648 314.776 C 216.516 310.84 199.034 297.401 198.294 294.106 C 199.732 293.055 201.39 293.987 202.996 292.981 C 203.776 289.658 203.2 285.514 202.769 282.135 L 202.682 281.483 Z"/>
  <path fill="#966911" d="M 234.697 399.921 C 236.788 398.399 239.164 397.148 241.424 395.895 C 245.297 393.748 251.26 390.249 255.742 391.52 L 256.47 392.056 C 256.324 392.227 256.176 392.396 256.032 392.569 C 255.597 393.089 255.248 393.584 254.894 394.158 L 255.692 394.988 C 256.822 394.812 257.87 394.554 258.968 394.232 C 259.95 394.735 260.938 395.225 261.933 395.702 C 263.018 395.235 263.499 394.763 264.385 393.995 L 264.426 394.775 C 264.529 396.548 264.482 398.252 265.539 399.754 C 269.064 401.305 272.466 395.813 274.848 401.151 C 274.427 403.573 272.48 405.506 271.266 407.627 C 270.051 409.977 267.55 412.606 266.837 415.037 C 265.537 415.986 264.256 416.772 262.837 417.529 C 261.11 419.037 259.472 420.468 258.017 422.253 L 255.984 425.184 L 254.887 426.406 L 254.469 427.42 C 253.65 427.94 252.785 428.432 252.006 429.01 L 250.843 429.51 C 248.689 429.954 247.69 430.069 245.721 428.887 C 244.849 428.363 244.029 427.868 243.097 427.453 L 242.222 427.069 C 241.058 426.925 239.87 426.781 238.823 426.218 C 235.572 424.471 233.143 421.276 232.136 417.767 C 232.746 418.491 232.872 418.874 233.795 419.17 C 233.404 417.928 233.028 416.772 233.052 415.455 C 233.057 415.157 233.073 414.86 233.083 414.562 C 232.42 410.515 231.433 408.302 232.823 404.201 C 233.162 402.745 234.042 401.276 234.697 399.921 Z"/>
  <path fill="#83550F" d="M 234.697 399.921 C 236.788 398.399 239.164 397.148 241.424 395.895 C 245.297 393.748 251.26 390.249 255.742 391.52 C 252.14 394.604 247.541 398.67 242.735 399.344 C 242.456 399.383 242.178 399.429 241.898 399.465 C 241.719 399.488 241.54 399.502 241.36 399.52 C 240.509 408.453 238.381 415.908 244.931 423.695 C 246.807 425.925 249.265 427.96 252.006 429.01 L 250.843 429.51 C 248.689 429.954 247.69 430.069 245.721 428.887 C 244.849 428.363 244.029 427.868 243.097 427.453 L 242.222 427.069 C 241.058 426.925 239.87 426.781 238.823 426.218 C 235.572 424.471 233.143 421.276 232.136 417.767 C 232.746 418.491 232.872 418.874 233.795 419.17 C 233.404 417.928 233.028 416.772 233.052 415.455 C 233.057 415.157 233.073 414.86 233.083 414.562 C 232.42 410.515 231.433 408.302 232.823 404.201 C 233.162 402.745 234.042 401.276 234.697 399.921 Z"/>
  <path fill="#6C4916" d="M 232.136 417.767 C 232.746 418.491 232.872 418.874 233.795 419.17 C 233.404 417.928 233.028 416.772 233.052 415.455 C 233.057 415.157 233.073 414.86 233.083 414.562 C 235.071 419.681 237.274 424.166 242.222 427.069 C 241.058 426.925 239.87 426.781 238.823 426.218 C 235.572 424.471 233.143 421.276 232.136 417.767 Z"/>
  <path fill="#6C4916" d="M 234.697 399.921 C 236.788 398.399 239.164 397.148 241.424 395.895 C 245.297 393.748 251.26 390.249 255.742 391.52 C 252.14 394.604 247.541 398.67 242.735 399.344 C 242.456 399.383 242.178 399.429 241.898 399.465 C 241.719 399.488 241.54 399.502 241.36 399.52 C 239.535 399.834 238.335 400.846 237.289 402.34 C 235.727 404.573 234.99 406.592 235.575 409.311 C 236.562 413.892 239.93 419.744 243.108 423.148 L 243.23 423.948 C 242.41 424.04 242.359 424.222 241.647 423.683 C 237.836 420.797 234.601 410.977 233.54 406.399 C 233.359 405.616 233.217 404.91 232.823 404.201 C 233.162 402.745 234.042 401.276 234.697 399.921 Z"/>
  <path fill="#A77A10" d="M 254.887 426.406 C 254.689 426.383 254.488 426.375 254.292 426.336 C 252.388 425.96 250.896 424.776 249.847 423.182 C 247.002 418.858 246.755 415.103 247.714 410.102 C 248.564 405.669 250.205 401.297 254.042 398.648 C 258.921 399.903 265.67 400.918 268.606 405.399 C 269.161 409.187 264.534 413.662 263.008 417.124 C 262.949 417.258 262.894 417.394 262.837 417.529 C 261.11 419.037 259.472 420.468 258.017 422.253 L 255.984 425.184 L 254.887 426.406 Z"/>
  <path fill="#D3A931" d="M 249.752 406.591 C 250.934 405.072 251.936 403.414 252.975 401.797 C 254.413 403.668 255.815 405.458 256.935 407.547 L 257.984 408.523 C 259.062 408.336 259.004 408.316 259.577 407.437 C 260.493 406.034 260.417 404.438 261.941 403.627 C 262.97 404.243 263.649 404.822 264.037 406.013 C 265.616 410.858 258.464 416.986 258.017 422.253 L 255.984 425.184 C 255.353 424.91 254.73 424.641 254.171 424.231 C 252.256 422.824 249.19 417.785 249.16 415.349 C 249.143 413.905 249.312 413.695 250.252 412.738 C 251.175 412.696 252.013 412.711 252.892 412.398 C 253.043 412.344 253.185 412.27 253.332 412.206 L 249.752 406.591 Z"/>
  <path fill="url(#gradient_3)" d="M 99.975 252.565 L 100.063 253.002 C 100.257 253.998 100.451 254.79 100.197 255.799 L 100.726 256.81 C 101.75 257.089 102.453 257.148 103.491 257.073 C 104.762 256.98 106.04 257.234 107.012 258.148 C 108.083 259.154 108.205 261.409 109.024 262.754 C 110.708 265.521 113.497 268.038 115.7 270.449 C 143.799 300.774 171.297 331.635 198.196 363.03 C 204.952 370.802 212.459 378.172 219.418 385.808 C 222.75 389.464 226.538 393.182 229.04 397.48 C 231.385 401.507 230.47 406.87 230.932 411.36 C 231.153 413.507 231.678 415.659 232.136 417.767 C 233.143 421.276 235.572 424.471 238.823 426.218 C 239.87 426.781 241.058 426.925 242.222 427.069 L 243.097 427.453 C 244.029 427.868 244.849 428.363 245.721 428.887 C 247.69 430.069 248.689 429.954 250.843 429.51 C 245.411 432.457 239.596 432.831 233.66 431.424 C 226.77 429.068 220.411 424.841 213.397 423.032 C 207.939 421.624 201.835 422.495 196.249 421.458 C 170.589 416.696 148.228 403.51 130.21 384.868 C 126.758 381.443 117.977 369.809 114.939 363.998 C 108.333 351.361 103.343 331.607 100.746 317.508 C 99.806 312.41 99.36 307.231 98.433 302.13 L 98.09 299.16 C 95.534 283.094 96.207 268.407 99.975 252.565 Z"/>
  <path d="M 856.439 125.454 C 870.078 126.012 882.516 120.575 896.04 122.367 C 880.861 165.091 848.57 267.151 837.788 311.209 C 837.171 327.69 834.528 355.633 845.881 369.106 C 849.56 373.471 881.09 365.478 889.206 358.427 C 889.206 358.427 891.834 377.583 885.321 383.943 C 876.93 392.128 866.454 398.148 854.456 397.772 C 844.941 397.472 836.438 393.038 830.162 385.934 C 816.587 370.56 815.66 349.745 816.07 330.266 C 813.793 331.444 814.833 330.742 812.663 332.648 C 794.13 348.916 765.038 374.331 741.711 381.962 C 735.221 384.084 731.223 383.484 725.405 380.206 L 725.806 378.198 C 814.842 321.65 823.097 215.972 856.439 125.454 Z M 944.308 142.07 C 950.647 154.22 955.884 166.65 961.098 179.317 C 916.693 187.469 736.57 174.888 718.333 158.398 C 713.26 153.815 711.78 150.032 711.694 143.33 L 713.629 142.678 C 806.87 191.892 849.632 158.308 944.308 142.07 Z M 1004.153 116.681 C 1017.792 117.241 1030.232 111.805 1043.754 113.597 C 1028.575 156.321 996.284 258.381 985.502 302.437 C 984.886 318.918 982.236 346.863 993.596 360.336 C 997.274 364.701 1001.665 367.379 1007.539 367.088 C 1018.91 366.53 1028.804 356.706 1036.916 349.655 C 1036.916 349.655 1075.33 336.377 1068.82 342.737 C 1060.425 350.922 1014.166 389.376 1002.165 389.002 C 992.655 388.7 984.152 384.268 977.876 377.161 C 964.3 361.786 963.369 340.974 963.782 321.493 C 961.508 322.674 962.545 321.969 960.378 323.875 C 941.844 340.142 889.625 388.246 866.301 395.876 C 859.809 397.999 878.932 374.711 873.12 371.436 L 873.521 369.428 C 962.55 312.877 970.805 207.202 1004.153 116.681 Z M 1092.022 133.299 C 1098.361 145.446 1103.592 157.879 1108.811 170.546 C 1064.4 178.698 884.284 166.116 866.044 149.628 C 860.974 145.045 859.494 141.259 859.404 134.56 L 861.337 133.907 C 954.584 183.12 997.346 149.538 1092.022 133.299 Z" style="fill: rgb(106, 121, 59); transform-origin: 915.869px 333.024px;"/>
  <path d="M 739.627 225.245 C 743.841 225.431 747.83 225.646 751.853 226.521 C 757.516 227.749 764.656 231.293 766.53 235.58 C 767.903 238.702 767.633 240.919 765.241 243.825 C 762.456 247.206 757.062 249.086 752.267 250.395 C 747.812 250.484 743.125 250.663 738.779 250.057 C 730.719 248.939 726.418 245.991 722.4 241.099 C 722.171 238.747 721.605 237.483 722.945 235.199 C 725.797 230.336 733.279 227.23 739.627 225.245 Z M 714.398 263.521 C 725.127 263.625 735.603 264.357 746.221 265.166 C 733.612 289.628 719.266 314.452 710.096 339.601 C 709.353 348.952 706.835 364.842 715.572 372.303 C 718.405 374.72 721.821 376.171 726.454 375.917 C 735.414 375.422 743.359 369.698 749.854 365.57 C 749.854 365.57 751.628 376.396 746.405 380.098 C 739.667 384.873 731.331 388.449 721.884 388.423 C 714.398 388.396 707.773 386.023 702.936 382.088 C 692.481 373.582 692.067 361.795 692.692 350.743 C 690.883 351.441 691.711 351.031 689.976 352.149 C 675.125 361.657 651.828 376.521 633.333 381.213 C 628.192 382.519 625.049 382.237 620.523 380.471 L 620.868 379.325 C 691.864 345.88 686.74 315.365 714.398 263.521 Z" style="fill: rgb(67, 86, 38); transform-origin: 693.929px 358.944px;"/>
  <path d="M 1081.835 325.077 C 1074.016 325.698 1064.627 312.894 1064.627 312.894 C 1068.946 294.394 1067.546 274.267 1069.665 255.304 C 1074.182 215.037 1091.685 131.218 1128.312 109.023 C 1137.913 103.207 1148.623 102.429 1159.132 106.081 C 1165.379 108.252 1170.257 112.262 1172.834 118.796 C 1179.803 136.389 1168.768 163.16 1161.444 179.382 C 1151.773 200.825 1139.914 221.459 1127.264 241.096 C 1116.801 257.348 1103.259 274.639 1096.08 292.831 C 1094.503 296.853 1093.324 301.006 1092.535 305.281 C 1091.748 309.555 1085.505 323.038 1081.835 325.077 Z M 1151.138 136.518 C 1119.86 162.955 1115 197.136 1111.285 237.134 C 1110.741 243.014 1109.688 250.506 1113.14 255.349 L 1116.706 251.001 C 1126.46 234.173 1163.559 160.127 1161.651 141.729 C 1158.085 139.339 1155.195 137.778 1151.138 136.518 Z M 1087.7 255.152 C 1097.313 255.337 1106.711 256.153 1116.234 257.043 C 1105.114 281.483 1092.436 306.267 1084.407 331.422 C 1083.812 340.793 1081.678 356.711 1089.561 364.262 C 1092.121 366.71 1095.191 368.188 1099.342 367.964 C 1107.373 367.537 1114.446 361.854 1120.243 357.769 C 1120.243 357.769 1121.915 368.639 1117.255 372.312 C 1111.254 377.048 1103.803 380.573 1095.344 380.474 C 1088.627 380.396 1082.667 377.961 1078.311 373.984 C 1068.874 365.371 1068.415 353.542 1068.892 342.469 C 1067.281 343.155 1068.014 342.747 1066.467 343.853 C 1053.232 353.282 1032.456 368.017 1015.912 372.577 C 1011.311 373.853 1008.493 373.548 1004.423 371.741 L 1004.724 370.593 C 1068.113 337.58 1063.296 306.942 1087.7 255.152 Z" style="fill: rgb(67, 86, 38); transform-origin: 1089.28px 326.435px;"/>
  <path d="M 1637.804 358.597 C 1628.365 365.053 1650.872 262.214 1679.316 231.625 C 1682.96 227.704 1687.153 225.353 1692.676 226.34 C 1699.559 227.573 1702.893 232.623 1706.677 237.812 C 1702.857 253.011 1699.672 269.069 1693.765 283.59 C 1684.974 305.203 1661.452 330.756 1662.428 354.139 C 1682.726 336.38 1685.032 305.141 1702.092 289.497 C 1706.78 285.194 1708.256 285.346 1714.238 285.108 C 1700.266 308.801 1687.585 333.34 1672.455 356.311 C 1666.053 365.924 1659.054 372.972 1650.62 380.65 C 1646.046 373.522 1642.027 365.941 1637.804 358.597 Z" style="fill: rgb(106, 121, 59); transform-origin: 1675.73px 356.037px;"/>
  <path d="M 1706.672 237.807 C 1707.702 244.742 1707.707 251.719 1712.938 256.876 C 1732.255 256.045 1746.984 215.38 1770.466 237.146 C 1777.838 243.983 1778.357 255.273 1777.433 264.619 C 1775.035 288.935 1730.046 379.338 1726.492 373.264 C 1710.589 346.076 1734.288 291.986 1740.983 262.844 C 1731.661 269.627 1723.023 277.616 1714.238 285.104 C 1708.256 285.341 1706.78 285.189 1702.092 289.493 C 1685.028 305.136 1682.726 336.376 1662.428 354.134 C 1661.452 330.751 1684.974 305.198 1693.765 283.586 C 1699.672 269.065 1702.857 253.006 1706.672 237.807 Z" style="fill: rgb(67, 86, 38); transform-origin: 1720.33px 354.719px;"/>
  <path d="M 1167.12 317.332 C 1170.577 329.516 1174.296 344.208 1184.278 352.776 C 1189.718 357.447 1196.051 358.834 1202.984 357.713 C 1251.204 349.923 1223.515 360.937 1213.636 366.71 C 1200.438 374.418 1183.586 379.133 1168.539 374.594 C 1155.411 370.633 1146.687 360.422 1140.512 348.569 C 1128.114 324.774 1137.544 295.64 1145.548 271.77 C 1152.667 250.52 1164.784 228.476 1185.911 218.744 C 1197.085 213.598 1209.883 213.047 1221.303 217.775 C 1231.023 221.804 1239.207 229.607 1243.012 239.54 C 1247.16 250.362 1245.562 262.323 1240.323 272.462 C 1226.317 299.574 1193.748 308.218 1167.12 317.332 Z M 1195.656 235.144 C 1186.563 245.291 1176.938 261.769 1178.006 276.078 C 1178.357 280.736 1179.492 282.975 1181.962 286.78 C 1188.675 289.61 1190.711 288.976 1197.755 288.095 C 1207.78 279.346 1217.275 268.944 1217.868 254.775 C 1218.08 249.734 1216.582 245.142 1213.177 241.387 C 1208.46 236.179 1202.143 235.849 1195.656 235.144 Z" style="fill: rgb(106, 121, 59);"/>
  <path d="M 522.242 327.332 C 545.17 335.055 569.509 339.018 592.082 347.056 C 601.753 350.497 611.233 354.252 615.833 364.029 C 615.177 369.739 614.253 372.493 609.82 376.422 C 596.318 388.387 579.064 388.912 561.978 386.68 C 546.386 384.636 531.057 379.991 515.571 377.184 C 500.057 374.367 483.398 374.169 468.451 369.061 C 460.51 366.35 455.53 363.026 450.426 356.405 C 449.197 351.076 448.016 348.672 451.184 343.663 C 458.812 331.596 476.469 326.328 489.344 322.373 C 495.975 327.472 502.313 333.987 511.065 333.906 C 515.31 332.006 518.658 330.311 522.242 327.332 Z" style="fill: rgb(114, 134, 74);"/>
  <path d="M 489.344 322.373 L 492.841 319.633 C 499.093 300.238 499.089 278.683 502.922 258.63 C 511.069 216.049 537.057 128.029 579.563 107.115 C 590.696 101.635 602.685 101.608 614.104 106.287 C 620.895 109.068 626.016 113.706 628.386 120.862 C 634.777 140.136 620.415 167.845 611.003 184.587 C 598.569 206.711 583.763 227.816 568.155 247.803 C 555.245 264.341 538.828 281.752 529.427 300.603 C 527.357 304.777 525.719 309.112 524.515 313.612 C 523.305 318.109 522.549 322.68 522.242 327.332 C 518.658 330.311 515.31 332.006 511.065 333.906 C 502.313 333.987 495.975 327.472 489.344 322.373 Z M 602.846 138.128 C 565.969 163.962 557.906 200.03 550.678 242.384 C 549.616 248.61 547.857 256.519 551.32 261.936 L 555.631 257.565 C 567.8 240.362 614.848 164.224 614.154 144.471 C 610.369 141.65 607.266 139.775 602.846 138.128 Z" style="fill: rgb(106, 121, 59);"/>
  <path d="M 1726.547 372.91 C 1717.597 345.552 1775.881 257.825 1776.587 269.663 C 1786.367 255.584 1803.026 228.786 1820.029 224.63 C 1826.445 223.056 1828.028 224.032 1833.63 226.781 C 1858.659 258.685 1826.926 307.414 1829.452 342.928 C 1829.876 348.961 1830.366 352.072 1834.777 356.215 C 1842.539 357.235 1847.854 354.725 1854.89 351.935 C 1857.741 313.546 1861.432 374.34 1857.116 362.394 C 1853.428 372.145 1850.093 378.969 1839.936 383.161 C 1830.906 386.881 1818.495 390.407 1809.013 386.524 C 1801.056 383.266 1796.759 375.345 1794.528 367.462 C 1786.002 337.393 1797.43 297.253 1807.884 268.859 L 1806.556 270.655 C 1792.629 289.826 1753.083 372.932 1732.394 376.392 C 1729.216 376.922 1726.253 373.531 1726.547 372.91 Z" style="fill: rgb(106, 121, 59); transform-origin: 1795.33px 356.547px;"/>
  <path d="M 2086.132 260.04 C 2095.125 248.201 2105.759 232.698 2121.872 231.185 C 2126.588 230.74 2130.698 232.079 2134.332 235.281 C 2143.129 243.032 2149.971 260.461 2149.899 272.023 C 2149.741 297.113 2126.889 328.874 2143.096 351.606 C 2146.79 353.169 2146.889 354.17 2150.906 352.612 C 2157.677 349.98 2162.13 344.437 2169.319 345.78 C 2172.03 350.043 2174.158 352.424 2173.101 357.854 C 2170.984 368.717 2158.824 378.228 2149.512 382.734 C 2141.652 386.531 2132.171 388.562 2123.659 385.759 C 2116.627 383.448 2111.525 378.063 2108.66 371.374 C 2097.531 345.358 2112.089 293.981 2111.575 263.993 C 2111.566 263.449 2111.575 262.907 2111.575 262.364 C 2072.439 292.215 2068.16 356.938 2027.591 376.458 C 2025.02 377.457 2026.494 377.02 2022.559 377.519 C 2017.872 378.111 2020.06 378.565 2015.905 375.272 C 2009.716 353.034 2030.877 324.646 2028.32 301.717 C 2014.744 306.143 2001.109 310.375 1987.413 314.407 C 1977.523 311.377 1968.033 306.426 1958.099 303.182 C 1954.293 305.491 1955.194 304.57 1952.619 307.23 C 1952.111 307.756 1951.639 308.312 1951.144 308.852 L 1946.147 306.713 L 1945.354 284.394 C 1949.049 285.81 1951.846 286.159 1954.451 289.228 C 1955.1 289.443 1955.743 289.653 1956.382 289.879 C 1973.192 295.774 1977.961 306.253 1997.763 299.772 C 2008.292 297.976 2017.863 297.212 2028.541 297.581 C 2041.952 277.82 2037.779 245.906 2058.244 230.632 C 2061.386 230.238 2063.091 229.356 2066.005 231.059 C 2076.452 237.165 2082.512 248.94 2086.132 260.04 Z" style="fill: rgb(106, 121, 59); transform-origin: 2060.09px 356.974px;"/>
  <path d="M 1564.603 325.797 C 1567.419 338.146 1570.369 353.016 1579.893 362.096 C 1585.08 367.044 1591.332 368.764 1598.315 368.009 C 1646.877 362.766 1650.912 262.25 1679.356 231.664 C 1683.005 227.74 1642.067 365.977 1637.849 358.633 C 1628.405 365.092 1618.653 372.308 1608.485 377.555 C 1594.902 384.558 1577.828 388.381 1563.039 383.058 C 1550.137 378.41 1541.958 367.753 1536.406 355.591 C 1525.264 331.178 1536.199 302.58 1545.43 279.164 C 1553.649 258.316 1566.897 236.94 1588.504 228.332 C 1599.93 223.781 1612.743 223.905 1623.894 229.226 C 1633.396 233.759 1641.158 241.984 1644.444 252.103 C 1648.019 263.128 1645.803 274.991 1640.043 284.838 C 1624.646 311.177 1591.67 318.096 1564.603 325.797 Z M 1597.379 245.223 C 1587.775 254.877 1577.302 270.826 1577.626 285.171 C 1577.734 289.84 1578.746 292.14 1581.019 296.068 C 1587.573 299.246 1589.641 298.721 1596.722 298.212 C 1607.187 290.004 1617.209 280.114 1618.541 265.994 C 1619.013 260.974 1617.758 256.307 1614.553 252.381 C 1610.11 246.931 1603.822 246.269 1597.379 245.223 Z" style="fill: rgb(106, 121, 59); transform-origin: 1604.35px 357.201px;"/>
  <path d="M 1856.468 364.569 C 1842.362 371.998 1826.265 352.921 1831.856 351.131 C 1869.135 316.125 1855.991 262.633 1928.009 230.848 C 1942.291 224.546 1959.485 219.136 1975.128 219.939 C 1985.261 220.457 1995.18 223.933 2002.036 231.709 C 2010.701 241.532 2012.464 255.7 2010.899 268.289 C 2009.401 280.365 2003.903 289.592 1997.763 299.772 C 1977.961 306.253 1973.196 295.774 1956.387 289.879 C 1955.743 289.653 1955.1 289.443 1954.455 289.228 C 1951.846 286.159 1949.053 285.81 1945.354 284.394 L 1946.15 306.713 L 1951.148 308.852 C 1951.639 308.312 1952.111 307.756 1952.624 307.23 C 1955.194 304.57 1954.293 305.491 1958.099 303.182 C 1968.037 306.426 1977.523 311.377 1987.413 314.407 C 1976.969 328.915 1966.49 343.714 1954.468 356.965 C 1940.856 371.976 1922.407 388.067 1901.156 388.437 C 1881.767 388.778 1869.288 377.451 1856.468 364.569 Z M 1946.15 306.713 L 1945.354 284.394 C 1943.963 276.511 1943.571 268.657 1943.106 260.675 L 1941.135 250.171 L 1936.912 248.36 C 1913.846 259.053 1889.519 286.187 1880.723 309.715 C 1875.551 323.541 1873.649 340.712 1880.674 354.279 C 1883.514 359.756 1888.097 364.56 1894.228 366.148 C 1902.38 368.251 1910.455 364.082 1916.628 359.055 C 1931.768 346.733 1944.026 326.072 1946.15 306.713 Z M 1960.403 243.989 C 1962.301 258.848 1964.144 270.535 1973.003 283.103 C 1973.462 283.011 1973.938 282.992 1974.375 282.839 C 1980.646 280.589 1985.814 276.729 1988.472 270.422 C 1991.802 262.511 1990.529 254.478 1986.801 246.961 C 1983.56 240.441 1979.558 238.804 1972.895 236.893 C 1965.926 238.557 1965.246 238.733 1960.403 243.989 Z" style="fill: rgb(67, 86, 38); transform-origin: 1921.28px 355.891px;"/>
  <path d="M 1943.106 260.67 C 1943.963 253.468 1945.525 247.254 1949.971 241.422 C 1952.763 237.752 1951.49 238.889 1956.442 238.261 L 1960.403 243.985 C 1962.301 258.844 1964.144 270.53 1973.003 283.099 C 1966.71 285.921 1961.293 288.149 1954.455 289.224 C 1951.846 286.154 1949.053 285.806 1945.354 284.39 C 1943.963 276.506 1943.571 268.656 1943.106 260.67 Z" style="fill: rgb(114, 134, 74); transform-origin: 1958.47px 336.179px;"/>
  <path d="M 1420.083 326.659 C 1443.012 334.381 1467.35 338.345 1489.922 346.385 C 1499.596 349.824 1509.072 353.575 1513.675 363.356 C 1513.019 369.066 1512.092 371.819 1507.659 375.748 C 1494.161 387.714 1476.903 388.239 1459.819 386.005 C 1444.226 383.962 1428.896 379.319 1413.411 376.512 C 1397.897 373.695 1381.237 373.495 1366.29 368.386 C 1358.35 365.673 1353.371 362.352 1348.269 355.734 C 1347.036 350.402 1345.858 347.996 1349.023 342.989 C 1356.654 330.923 1374.309 325.655 1387.183 321.7 C 1393.815 326.798 1400.154 333.313 1408.904 333.231 C 1413.15 331.333 1416.499 329.638 1420.083 326.659 Z" style="fill: rgb(114, 134, 74);"/>
  <path d="M 1387.183 321.7 L 1390.681 318.96 C 1396.934 299.565 1396.93 278.009 1400.761 257.959 C 1408.909 215.374 1434.896 127.357 1477.402 106.441 C 1488.536 100.963 1500.527 100.936 1511.944 105.614 C 1518.737 108.395 1523.856 113.033 1526.225 120.189 C 1532.617 139.464 1518.254 167.171 1508.843 183.914 C 1496.409 206.039 1481.606 227.142 1465.995 247.129 C 1453.084 263.669 1436.67 281.079 1427.266 299.93 C 1425.201 304.104 1423.565 308.439 1422.355 312.939 C 1421.145 317.436 1420.389 322.011 1420.083 326.659 C 1416.499 329.638 1413.15 331.333 1408.904 333.231 C 1400.154 333.313 1393.815 326.798 1387.183 321.7 Z M 1500.686 137.456 C 1463.808 163.289 1455.748 199.356 1448.519 241.709 C 1447.457 247.933 1445.697 255.845 1449.163 261.262 L 1453.471 256.891 C 1465.639 239.689 1512.691 163.55 1511.993 143.797 C 1508.208 140.976 1505.106 139.102 1500.686 137.456 Z" style="fill: rgb(106, 121, 59);"/>
</svg>